<svg aria-hidden="true" style="position: absolute; width: 0; height: 0; overflow: hidden;" version="1.1" xmlns="http://www.w3.org/2000/svg" xmlns:xlink="http://www.w3.org/1999/xlink">
<defs>
<symbol id="icon-next" viewBox="0 0 32 32">
<path stroke="#fff" stroke-linejoin="round" stroke-linecap="round" stroke-miterlimit="4" stroke-width="0.3299" d="M12 24l8-8-8-8"></path>
</symbol>
<symbol id="icon-previous" viewBox="0 0 32 32">
<path stroke="#fff" stroke-linejoin="round" stroke-linecap="round" stroke-miterlimit="4" stroke-width="0.3299" d="M20 8l-8 8 8 8"></path>
</symbol>
<symbol id="icon-credit-card" viewBox="0 0 32 32">
<path fill="none" stroke="#fff" style="stroke: var(--color1, #fff)" stroke-linejoin="round" stroke-linecap="round" stroke-miterlimit="4" stroke-width="2.0645" d="M26.666 6.667h-21.333c-1.473 0-2.667 1.194-2.667 2.667v13.333c0 1.473 1.194 2.667 2.667 2.667h21.333c1.473 0 2.667-1.194 2.667-2.667v-13.333c0-1.473-1.194-2.667-2.667-2.667z"></path>
<path fill="none" stroke="#fff" style="stroke: var(--color1, #fff)" stroke-linejoin="round" stroke-linecap="round" stroke-miterlimit="4" stroke-width="2.0645" d="M2.666 13.333h26.667"></path>
</symbol>
<symbol id="icon-facebook" viewBox="0 0 31 32">
<path fill="#00d700" style="fill: var(--color2, #00d700)" d="M26.685 3.235h-22.723c-0.372 0-0.73 0.148-0.993 0.411s-0.411 0.621-0.411 0.993v22.723c0 0.184 0.036 0.367 0.107 0.537s0.174 0.325 0.304 0.456c0.13 0.13 0.285 0.234 0.456 0.304s0.353 0.107 0.537 0.107h12.23v-9.894h-3.319v-3.83h3.319v-2.872c-0.069-0.674 0.011-1.356 0.233-1.996s0.582-1.224 1.054-1.711 1.045-0.864 1.678-1.106c0.633-0.242 1.312-0.342 1.988-0.294 0.994-0.006 1.987 0.045 2.974 0.153v3.447h-2.030c-1.608 0-1.915 0.766-1.915 1.877v2.464h3.83l-0.498 3.83h-3.332v9.932h6.511c0.184 0 0.367-0.036 0.537-0.107s0.325-0.174 0.456-0.304c0.13-0.13 0.234-0.285 0.304-0.456s0.107-0.353 0.107-0.537v-22.723c0-0.184-0.036-0.367-0.107-0.537s-0.174-0.325-0.304-0.456c-0.13-0.13-0.285-0.234-0.456-0.304s-0.353-0.107-0.537-0.107z"></path>
</symbol>
<symbol id="icon-gift-card" viewBox="0 0 50 32">
<path fill="#fff" style="fill: var(--color1, #fff)" d="M2.712-0.478c-0.301 0.086-0.7 0.24-0.894 0.343-0.544 0.3-1.293 1.079-1.536 1.619l-0.224 0.488-0.029 9.524-0.019 9.533h2.596l2.606-0.009-0.379-0.171c-0.972-0.454-1.808-1.55-2.022-2.638-0.554-2.852 3.004-5.13 5.999-3.828 0.69 0.3 1.643 1.028 1.75 1.345 0.039 0.086 0.107 0.163 0.156 0.163s0.088-3.212 0.088-8.265v-8.265l-3.763 0.009c-3.364 0-3.831 0.017-4.326 0.154z"></path>
<path fill="#fff" style="fill: var(--color1, #fff)" d="M12.357 7.419v8.068l0.467-0.385c0.992-0.814 2.003-1.148 3.306-1.071 2.324 0.128 4.025 1.833 3.879 3.888-0.078 1.165-0.719 2.141-1.867 2.818l-0.486 0.291h32.132v-9.319c0-10.141 0.019-9.85-0.544-10.689-0.36-0.54-1.215-1.19-1.867-1.422l-0.554-0.197-34.465-0.043v8.059z"></path>
<path fill="#fff" style="fill: var(--color1, #fff)" d="M5.881 15.624c-0.496 0.197-1.011 0.642-1.264 1.088-0.136 0.24-0.185 0.514-0.185 0.976 0 0.548 0.039 0.702 0.263 1.045 0.36 0.522 0.885 0.899 1.487 1.053 0.7 0.171 4.035 0.711 4.035 0.651 0-0.034-0.175-0.839-0.379-1.79-0.418-1.893-0.603-2.287-1.215-2.707-0.739-0.488-1.954-0.634-2.742-0.317z"></path>
<path fill="#fff" style="fill: var(--color1, #fff)" d="M14.739 15.667c-0.525 0.214-1.099 0.711-1.293 1.122-0.068 0.146-0.292 1.011-0.496 1.927-0.331 1.525-0.35 1.67-0.194 1.696 0.253 0.043 3.685-0.548 4.151-0.711 0.544-0.197 1.215-0.865 1.381-1.37 0.593-1.867-1.556-3.486-3.549-2.664z"></path>
<path fill="#fff" style="fill: var(--color1, #fff)" d="M0.029 25.97l0.029 3.494 0.311 0.582c0.379 0.702 1.069 1.319 1.847 1.662l0.564 0.24 8.021 0.051v-4.377c0-2.398-0.029-4.368-0.068-4.368s-0.972 0.788-2.071 1.756c-2.178 1.91-2.285 1.97-2.858 1.576-0.194-0.137-0.253-0.248-0.253-0.531 0-0.343 0.049-0.394 1.818-1.961l1.818-1.61h-9.188l0.029 3.486z"></path>
<path fill="#fff" style="fill: var(--color1, #fff)" d="M16.469 24.694c2.382 2.099 2.499 2.227 2.499 2.527 0 0.42-0.35 0.745-0.797 0.745-0.282 0-0.583-0.24-2.995-2.355-1.468-1.293-2.713-2.355-2.751-2.355s-0.068 1.97-0.068 4.368v4.368l34.66-0.043 0.564-0.24c0.671-0.291 1.429-0.916 1.721-1.439 0.457-0.779 0.486-1.036 0.486-4.514v-3.272h-35.817l2.499 2.21z"></path>
</symbol>
<symbol id="icon-favorite" viewBox="0 0 33 32">
<path fill="#fff" style="fill: var(--color1, #fff)" d="M22.164 4c-2.32 0-4.547 1.080-6 2.78-1.453-1.7-3.68-2.78-6-2.78-4.113 0-7.333 3.22-7.333 7.333 0 5.033 4.533 9.147 11.4 15.38l1.933 1.753 1.933-1.753c6.867-6.233 11.4-10.347 11.4-15.38 0-4.113-3.22-7.333-7.333-7.333zM16.304 24.74l-0.14 0.127-0.14-0.127c-6.34-5.753-10.527-9.553-10.527-13.407 0-2.66 2.007-4.667 4.667-4.667 2.053 0 4.053 1.327 4.753 3.147h2.487c0.707-1.82 2.707-3.147 4.76-3.147 2.66 0 4.667 2.007 4.667 4.667 0 3.853-4.187 7.653-10.527 13.407z"></path>
</symbol>
<symbol id="icon-mail" viewBox="0 0 33 32">
<path fill="#fff" style="fill: var(--color1, #fff)" d="M27.2 5.333h-21.333c-1.473 0-2.653 1.193-2.653 2.667l-0.013 16c0 1.473 1.193 2.667 2.667 2.667h21.333c1.473 0 2.667-1.193 2.667-2.667v-16c0-1.473-1.193-2.667-2.667-2.667zM27.2 10.667l-10.667 6.667-10.667-6.667v-2.667l10.667 6.667 10.667-6.667v2.667z"></path>
</symbol>
<symbol id="icon-phone" viewBox="0 0 33 32">
<path fill="#fff" style="fill: var(--color1, #fff)" d="M9.367 14.393c1.92 3.773 5.007 6.86 8.787 8.78l2.933-2.94c0.367-0.367 0.893-0.473 1.353-0.327 1.493 0.493 3.1 0.76 4.76 0.76 0.74 0 1.333 0.593 1.333 1.333v4.667c0 0.74-0.593 1.333-1.333 1.333-12.52 0-22.667-10.147-22.667-22.667 0-0.74 0.6-1.333 1.333-1.333h4.667c0.74 0 1.333 0.593 1.333 1.333 0 1.66 0.267 3.267 0.76 4.76 0.147 0.46 0.040 0.987-0.327 1.353l-2.933 2.947z"></path>
</symbol>
<symbol id="icon-time" viewBox="0 0 33 32">
<path fill="#fff" style="fill: var(--color1, #fff)" d="M16.527 2.667c-7.367 0-13.327 5.967-13.327 13.333s5.96 13.333 13.327 13.333c7.367 0 13.34-5.967 13.34-13.333s-5.973-13.333-13.34-13.333zM16.533 26.667c-5.893 0-10.667-4.773-10.667-10.667s4.773-10.667 10.667-10.667c5.893 0 10.667 4.773 10.667 10.667s-4.773 10.667-10.667 10.667z"></path>
<path fill="#fff" style="fill: var(--color1, #fff)" d="M17.2 9.333h-2v8l6.993 4.2 1.007-1.64-6-3.56v-7z"></path>
</symbol>
<symbol id="icon-shopping_cart" viewBox="0 0 33 32">
<path fill="#fff" style="fill: var(--color1, #fff)" d="M9.497 24c-1.473 0-2.653 1.193-2.653 2.667s1.18 2.667 2.653 2.667c1.473 0 2.667-1.193 2.667-2.667s-1.193-2.667-2.667-2.667zM1.497 2.667v2.667h2.667l4.793 10.113-1.8 3.267c-0.207 0.387-0.327 0.82-0.327 1.287 0 1.473 1.193 2.667 2.667 2.667h16v-2.667h-15.433c-0.187 0-0.333-0.147-0.333-0.333 0-0.060 0.013-0.113 0.040-0.16l1.193-2.173h9.933c1 0 1.873-0.553 2.333-1.373l4.767-8.653c0.107-0.187 0.167-0.407 0.167-0.64 0-0.74-0.6-1.333-1.333-1.333h-19.713l-1.267-2.667h-4.353zM22.831 24c-1.473 0-2.653 1.193-2.653 2.667s1.18 2.667 2.653 2.667c1.473 0 2.667-1.193 2.667-2.667s-1.193-2.667-2.667-2.667z"></path>
</symbol>
<symbol id="icon-get-cash" viewBox="0 0 32 32">
<path fill="#fff" style="fill: var(--color1, #fff)" d="M20.267 3.982c-1.778 0.924-3.2 3.164-3.2 5.084s1.422 4.16 3.2 5.049c1.991 1.031 3.342 1.031 5.333 0 1.778-0.889 3.2-3.129 3.2-5.049 0-0.604-0.356-1.813-0.782-2.667-0.924-1.778-3.165-3.2-5.085-3.2-0.604 0-1.813 0.356-2.667 0.782zM23.467 5.831c0 0.284 0.32 0.604 0.675 0.747 0.391 0.107 0.782 0.462 0.889 0.747 0.178 0.462-0.036 0.498-1.387 0.284-2.062-0.284-2.133 0.32-0.071 0.996 1.209 0.391 1.529 0.64 1.6 1.422 0.107 0.782-0.071 1.067-0.782 1.422-0.498 0.213-0.924 0.604-0.924 0.889 0 0.249-0.249 0.462-0.533 0.462s-0.533-0.213-0.533-0.462-0.356-0.604-0.782-0.782c-0.427-0.213-0.853-0.569-0.924-0.818-0.107-0.391 0.213-0.427 1.529-0.213 1.351 0.178 1.671 0.142 1.529-0.249-0.071-0.249-0.64-0.604-1.244-0.747s-1.28-0.498-1.529-0.782c-0.533-0.711-0.142-1.884 0.747-2.169 0.356-0.142 0.676-0.462 0.676-0.747s0.249-0.498 0.533-0.498c0.285 0 0.533 0.213 0.533 0.498z"></path>
<path fill="#fff" style="fill: var(--color1, #fff)" d="M4.977 17.067l-2.667 0.996-0.107 4.302-0.107 4.338 1.351-0.605c4.267-1.884 3.591-1.92 9.636 0.533 3.2 1.316 5.689 2.133 6.044 1.991 0.32-0.107 2.809-1.422 5.511-2.88 5.049-2.773 5.938-3.662 4.871-4.942-0.675-0.782-1.28-0.676-5.404 1.067-4.089 1.707-5.369 2.027-4.409 1.031 0.604-0.604 0.675-0.889 0.355-1.671-0.249-0.675-10.489-5.227-11.591-5.191-0.462 0-2.027 0.462-3.484 1.031z"></path>
</symbol>
<symbol id="icon-icons8-get-cash-90-1" viewBox="0 0 32 32">
<path fill="#fff" style="fill: var(--color1, #fff)" d="M20.267 3.982c-1.778 0.924-3.2 3.164-3.2 5.084s1.422 4.16 3.2 5.049c1.991 1.031 3.342 1.031 5.333 0 1.778-0.889 3.2-3.129 3.2-5.049 0-0.604-0.356-1.813-0.782-2.667-0.924-1.778-3.164-3.2-5.084-3.2-0.605 0-1.813 0.356-2.667 0.782zM23.467 5.831c0 0.284 0.32 0.604 0.676 0.747 0.391 0.107 0.782 0.462 0.889 0.747 0.178 0.462-0.036 0.498-1.387 0.284-2.062-0.284-2.133 0.32-0.071 0.996 1.209 0.391 1.529 0.64 1.6 1.422 0.107 0.782-0.071 1.067-0.782 1.422-0.498 0.213-0.924 0.604-0.924 0.889 0 0.249-0.249 0.462-0.533 0.462s-0.533-0.213-0.533-0.462-0.356-0.604-0.782-0.782c-0.427-0.213-0.853-0.569-0.924-0.818-0.107-0.391 0.213-0.427 1.529-0.213 1.351 0.178 1.671 0.142 1.529-0.249-0.071-0.249-0.64-0.604-1.244-0.747s-1.28-0.498-1.529-0.782c-0.533-0.711-0.142-1.884 0.747-2.169 0.356-0.142 0.676-0.462 0.676-0.747s0.249-0.498 0.533-0.498c0.284 0 0.533 0.213 0.533 0.498z"></path>
<path fill="#fff" style="fill: var(--color1, #fff)" d="M4.978 17.067l-2.667 0.996-0.107 4.302-0.107 4.338 1.351-0.605c4.267-1.884 3.591-1.92 9.636 0.533 3.2 1.316 5.689 2.133 6.044 1.991 0.32-0.107 2.809-1.422 5.511-2.88 5.049-2.773 5.938-3.662 4.871-4.942-0.675-0.782-1.28-0.676-5.404 1.067-4.089 1.707-5.369 2.027-4.409 1.031 0.605-0.604 0.676-0.889 0.356-1.671-0.249-0.675-10.489-5.227-11.591-5.191-0.462 0-2.027 0.462-3.484 1.031z"></path>
</symbol>
<symbol id="icon-instagram" viewBox="0 0 32 32">
<path fill="#00d700" style="fill: var(--color2, #00d700); stroke: var(--color2, #00d700)" stroke="#00d700" stroke-linejoin="round" stroke-linecap="round" stroke-miterlimit="4" stroke-width="1.5612" d="M22.584 2.958h-13.041c-3.601 0-6.521 2.919-6.521 6.521v13.041c0 3.601 2.919 6.521 6.521 6.521h13.041c3.601 0 6.521-2.919 6.521-6.521v-13.041c0-3.601-2.919-6.521-6.521-6.521z"></path>
<path fill="#17171b" style="fill: var(--color3, #17171b); stroke: var(--color3, #17171b)" stroke="#17171b" stroke-linejoin="round" stroke-linecap="round" stroke-miterlimit="4" stroke-width="0.9697" d="M21.28 15.179c0.161 1.085-0.024 2.194-0.53 3.168s-1.305 1.764-2.285 2.257-2.091 0.665-3.174 0.491c-1.083-0.174-2.084-0.686-2.86-1.462s-1.287-1.777-1.462-2.86c-0.174-1.083-0.003-2.194 0.491-3.174s1.283-1.78 2.257-2.285c0.974-0.505 2.082-0.691 3.168-0.53 1.107 0.164 2.132 0.68 2.923 1.471s1.307 1.816 1.471 2.923z"></path>
<path fill="#17171b" style="fill: var(--color3, #17171b)" d="M23.475 9.411c0 0.455-0.369 0.824-0.824 0.824s-0.824-0.369-0.824-0.824c0-0.455 0.369-0.824 0.824-0.824s0.824 0.369 0.824 0.824z"></path>
</symbol>
<symbol id="icon-istockphoto" viewBox="0 0 44 32">
<path fill="#fff" style="fill: var(--color1, #fff)" d="M2.342-0.121c-1.264 0.249-2.378 1.493-2.541 2.799-0.038 0.348-0.063 5.088-0.038 10.525 0.038 7.552 0.088 10.003 0.2 10.351 0.35 1.020 1.577 2.165 2.628 2.463 0.3 0.075 4.093 0.124 10.627 0.124 9.062 0 10.176-0.025 10.351-0.199 0.238-0.236 0.263-0.672 0.050-0.958-0.15-0.187-0.989-0.212-10.364-0.236l-10.201-0.037-0.526-0.299c-0.3-0.174-0.688-0.523-0.876-0.796l-0.35-0.498-0.038-6.27-0.038-6.258h32.931v0.995c0 0.846 0.038 1.033 0.263 1.257 0.263 0.261 0.764 0.249 1.051-0.025 0.075-0.075 0.125-1.941 0.125-5.063 0-4.802-0.012-4.951-0.275-5.524-0.375-0.821-1.202-1.655-2.028-2.053l-0.701-0.348-14.895-0.012c-8.186-0.012-15.108 0.012-15.358 0.062zM33.045 1.696c0.288 0.199 0.663 0.622 0.826 0.921 0.25 0.473 0.288 0.734 0.288 1.841v1.281h-32.919v-1.592c0-1.779 0.138-2.165 0.901-2.637 0.413-0.249 0.613-0.249 15.395-0.224l14.97 0.037 0.538 0.373z"></path>
<path fill="#fff" style="fill: var(--color1, #fff)" d="M32.294 14.336c-0.939 0.162-2.291 0.647-3.117 1.132-1.026 0.597-2.641 2.227-3.217 3.247-1.477 2.65-1.565 5.661-0.25 8.36 0.901 1.866 2.228 3.185 4.131 4.118 4.919 2.414 10.802-0.062 12.517-5.275 0.2-0.597 0.2-0.672 0.013-0.958-0.2-0.311-0.613-0.398-0.901-0.212-0.075 0.050-0.313 0.523-0.538 1.058-0.976 2.426-2.804 4.081-5.207 4.69-3.53 0.896-7.172-0.734-8.749-3.919-2.24-4.504 0.351-9.791 5.32-10.836 3.242-0.684 6.784 1.033 8.299 4.018 0.175 0.361 0.325 0.684 0.325 0.709 0 0.037-0.175 0.037-0.375-0.012-0.463-0.087-0.876 0.224-0.876 0.659 0 0.299 0.238 0.485 1.577 1.232 0.901 0.498 1.127 0.411 1.84-0.746 0.601-0.958 0.713-1.381 0.438-1.655-0.213-0.212-0.726-0.187-0.989 0.050-0.2 0.174-0.238 0.137-0.526-0.498-1.702-3.695-5.695-5.822-9.713-5.163z"></path>
<path fill="#fff" style="fill: var(--color1, #fff)" d="M5.146 16.724c-0.263 0.274-0.275 0.411-0.275 2.090 0 2.501-0.2 2.351 3.142 2.351 3.317 0 3.117 0.149 3.117-2.376 0-2.501 0.2-2.351-3.142-2.351-2.528 0-2.578 0-2.841 0.286z"></path>
<path fill="#fff" style="fill: var(--color1, #fff)" d="M29.29 18.267c-0.413 0.522-0.15 1.12 0.526 1.182l0.4 0.037 0.188 1.244c0.225 1.381 0.3 1.58 0.864 2.103l0.388 0.373-0.513 0.523c-0.488 0.498-0.526 0.572-0.713 1.841-0.188 1.281-0.2 1.319-0.513 1.319-0.488 0.012-0.801 0.311-0.801 0.759 0 0.734 0.025 0.734 4.756 0.734 4.13 0 4.306-0.012 4.544-0.249 0.138-0.137 0.25-0.361 0.25-0.498 0-0.336-0.438-0.747-0.801-0.747s-0.376-0.050-0.576-1.543c-0.15-1.033-0.188-1.145-0.663-1.655l-0.501-0.547 0.463-0.46c0.501-0.523 0.626-0.858 0.764-2.028 0.125-1.157 0.15-1.232 0.551-1.232 0.688 0 1.001-0.759 0.513-1.244-0.238-0.236-0.413-0.249-4.556-0.249h-4.318l-0.25 0.336zM36.024 19.884c-0.013 1.182-0.163 1.568-0.901 2.289-0.914 0.896-0.914 1.082-0.012 1.991 0.739 0.734 0.901 1.145 0.914 2.314l0.013 0.411h-2.19c-2.491 0-2.278 0.124-2.065-1.244 0.125-0.734 0.188-0.858 0.738-1.393 0.563-0.523 0.889-0.946 0.889-1.157 0-0.050-0.338-0.423-0.739-0.846-0.701-0.734-0.738-0.809-0.876-1.667-0.075-0.485-0.138-0.958-0.138-1.020 0-0.087 0.738-0.137 2.19-0.137h2.19l-0.013 0.46z"></path>
<path fill="#fff" style="fill: var(--color1, #fff)" d="M32.407 20.979c-0.125 0.149-0.125 0.224 0.013 0.398 0.375 0.51 1.302 1.406 1.439 1.406 0.225 0 1.552-1.393 1.552-1.63 0-0.299-0.263-0.361-1.627-0.361-0.926 0-1.252 0.050-1.377 0.187z"></path>
<path fill="#fff" style="fill: var(--color1, #fff)" d="M32.932 25.532c-0.926 1.020-0.826 1.132 1.026 1.082 1.164-0.037 1.389-0.075 1.427-0.236 0.050-0.299-1.189-1.605-1.527-1.605-0.163 0-0.513 0.286-0.926 0.759z"></path>
</symbol>
<symbol id="icon-search" viewBox="0 0 32 32">
<path fill="none" stroke="#fff" style="stroke: var(--color1, #fff)" stroke-linejoin="round" stroke-linecap="round" stroke-miterlimit="4" stroke-width="2.7826" d="M14.667 25.333c5.891 0 10.667-4.776 10.667-10.667s-4.776-10.667-10.667-10.667c-5.891 0-10.667 4.776-10.667 10.667s4.776 10.667 10.667 10.667z"></path>
<path fill="none" stroke="#fff" style="stroke: var(--color1, #fff)" stroke-linejoin="round" stroke-linecap="round" stroke-miterlimit="4" stroke-width="2.7826" d="M28.001 28l-5.8-5.8"></path>
</symbol>
<symbol id="icon-star" viewBox="0 0 32 32">
<path d="M15.551 2.369l4.805 9.346 10.746 1.508-7.776 7.271 1.835 10.272-9.61-4.852-9.61 4.852 1.835-10.272-7.775-7.271 10.746-1.508 4.805-9.346z"></path>
</symbol>
<symbol id="icon-truck" viewBox="0 0 32 32">
<path fill="none" stroke="#fff" style="stroke: var(--color1, #fff)" stroke-linejoin="round" stroke-linecap="round" stroke-miterlimit="4" stroke-width="2.0645" d="M13.333 22.667h5.333v-16h-16v16h4"></path>
<path fill="none" stroke="#fff" style="stroke: var(--color1, #fff)" stroke-linejoin="round" stroke-linecap="round" stroke-miterlimit="4" stroke-width="2.0645" d="M26.666 22.667h2.667v-4.453c0.001-0.701-0.137-1.394-0.405-2.042s-0.66-1.236-1.155-1.732l-2.44-2.44h-6.667"></path>
<path fill="none" stroke="#fff" style="stroke: var(--color1, #fff)" stroke-linejoin="round" stroke-linecap="round" stroke-miterlimit="4" stroke-width="2.0645" d="M18.666 22.667h1.333"></path>
<path fill="none" stroke="#fff" style="stroke: var(--color1, #fff)" stroke-linejoin="round" stroke-linecap="round" stroke-miterlimit="4" stroke-width="2.0645" d="M10 26.667c1.841 0 3.333-1.492 3.333-3.333s-1.492-3.333-3.333-3.333-3.333 1.492-3.333 3.333c0 1.841 1.492 3.333 3.333 3.333z"></path>
<path fill="none" stroke="#fff" style="stroke: var(--color1, #fff)" stroke-linejoin="round" stroke-linecap="round" stroke-miterlimit="4" stroke-width="2.0645" d="M23.333 26.667c1.841 0 3.333-1.492 3.333-3.333s-1.492-3.333-3.333-3.333c-1.841 0-3.333 1.492-3.333 3.333s1.492 3.333 3.333 3.333z"></path>
</symbol>
<symbol id="icon-twitter" viewBox="0 0 33 32">
<path fill="#00d700" style="fill: var(--color2, #00d700); stroke: var(--color2, #00d700)" stroke="#00d700" stroke-linejoin="round" stroke-linecap="round" stroke-miterlimit="4" stroke-width="1.3617" d="M29.941 5.333c0 0-0.933 2.8-2.667 4.533 2.133 13.333-12.533 23.067-24 15.467 2.933 0.133 5.867-0.8 8-2.667-6.667-2-10-9.867-6.667-16 2.933 3.467 7.467 5.467 12 5.333-1.2-5.6 5.333-8.8 9.333-5.067 1.467 0 4-1.6 4-1.6z"></path>
</symbol>
<symbol id="icon-user" viewBox="0 0 33 32">
<path fill="none" stroke="#fff" style="stroke: var(--color1, #fff)" stroke-linejoin="round" stroke-linecap="round" stroke-miterlimit="4" stroke-width="2.1333" d="M26.831 28v-2.667c0-1.415-0.562-2.771-1.562-3.771s-2.357-1.562-3.771-1.562h-10.667c-1.414 0-2.771 0.562-3.771 1.562s-1.562 2.357-1.562 3.771v2.667M21.497 9.333c0 2.946-2.388 5.333-5.333 5.333s-5.333-2.388-5.333-5.333c0-2.946 2.388-5.333 5.333-5.333s5.333 2.388 5.333 5.333z"></path>
</symbol>
<symbol id="icon-triangle-right" viewBox="0 0 32 32">
<path d="M24 16l-14.4 8v-16l14.4 8z"></path>
</symbol>
<symbol id="icon-Logo-1" viewBox="0 0 63 32">
<path fill="#fff" style="fill: var(--color1, #fff)" opacity="0.8" d="M1.623 18.52h1.778v8.716h-1.778v-8.716z"></path>
<path fill="#fff" style="fill: var(--color1, #fff)" opacity="0.8" d="M4.43 24.25c-0.001-0.626 0.183-1.238 0.53-1.759s0.841-0.928 1.419-1.168c0.578-0.24 1.214-0.304 1.829-0.182s1.178 0.422 1.622 0.864c0.443 0.442 0.745 1.006 0.868 1.62s0.060 1.25-0.179 1.829c-0.239 0.578-0.645 1.073-1.165 1.421s-1.132 0.534-1.758 0.534c-0.416 0.005-0.829-0.074-1.215-0.231s-0.736-0.389-1.031-0.683c-0.295-0.294-0.528-0.644-0.685-1.029s-0.237-0.798-0.233-1.215zM8.969 24.25c-0.007-0.27-0.094-0.532-0.249-0.754s-0.372-0.392-0.624-0.491-0.527-0.121-0.791-0.064c-0.264 0.057-0.506 0.191-0.695 0.384s-0.316 0.438-0.366 0.704c-0.050 0.266-0.021 0.54 0.084 0.789s0.281 0.462 0.506 0.611c0.225 0.15 0.49 0.229 0.76 0.229 0.185 0.005 0.369-0.028 0.54-0.098s0.327-0.174 0.456-0.306c0.129-0.133 0.229-0.29 0.295-0.463s0.094-0.358 0.084-0.543z"></path>
<path fill="#fff" style="fill: var(--color1, #fff)" opacity="0.8" d="M17.905 21.263v5.676c0 2.009-1.57 2.856-3.158 2.856-0.558 0.042-1.117-0.071-1.616-0.326s-0.917-0.642-1.21-1.119l1.529-0.883c0.121 0.244 0.313 0.447 0.551 0.581s0.51 0.194 0.782 0.171c0.179 0.030 0.362 0.018 0.536-0.034s0.333-0.144 0.466-0.267c0.133-0.124 0.235-0.276 0.3-0.446s0.089-0.352 0.072-0.532v-0.551c-0.209 0.257-0.476 0.461-0.778 0.596s-0.633 0.197-0.964 0.18c-0.805 0-1.576-0.32-2.145-0.889s-0.889-1.341-0.889-2.145 0.32-1.576 0.889-2.145c0.569-0.569 1.341-0.889 2.145-0.889 0.331-0.015 0.66 0.047 0.963 0.182s0.569 0.338 0.779 0.594v-0.593l1.748-0.018zM16.157 24.131c0.012-0.288-0.063-0.573-0.214-0.819s-0.373-0.44-0.636-0.558c-0.263-0.119-0.555-0.156-0.84-0.107s-0.547 0.182-0.755 0.381c-0.208 0.2-0.352 0.457-0.413 0.739s-0.036 0.576 0.072 0.843c0.107 0.268 0.293 0.497 0.531 0.659s0.521 0.248 0.809 0.248c0.188 0.013 0.377-0.013 0.555-0.077s0.34-0.165 0.476-0.295c0.136-0.131 0.243-0.288 0.315-0.463s0.106-0.362 0.1-0.551z"></path>
<path fill="#fff" style="fill: var(--color1, #fff)" opacity="0.8" d="M18.929 24.25c-0.001-0.626 0.183-1.238 0.53-1.759s0.841-0.928 1.419-1.168 1.214-0.304 1.829-0.182c0.614 0.121 1.178 0.422 1.622 0.865s0.745 1.006 0.868 1.62c0.123 0.614 0.060 1.25-0.179 1.829s-0.645 1.073-1.165 1.421c-0.52 0.348-1.132 0.534-1.758 0.534-0.416 0.005-0.829-0.074-1.215-0.231s-0.736-0.389-1.031-0.683c-0.295-0.294-0.528-0.644-0.685-1.029s-0.237-0.798-0.233-1.215zM23.468 24.25c-0.007-0.27-0.094-0.532-0.249-0.754s-0.372-0.392-0.624-0.491c-0.252-0.099-0.527-0.121-0.791-0.064s-0.506 0.191-0.695 0.384c-0.189 0.194-0.316 0.439-0.366 0.704s-0.021 0.54 0.084 0.789c0.105 0.249 0.281 0.462 0.506 0.611s0.49 0.229 0.76 0.229c0.184 0.003 0.367-0.031 0.537-0.101s0.324-0.175 0.452-0.307c0.128-0.132 0.227-0.29 0.291-0.462s0.093-0.356 0.083-0.54h0.012z"></path>
<path fill="#fff" style="fill: var(--color1, #fff)" opacity="0.8" d="M26.081 19.663c0-0.213 0.063-0.422 0.182-0.599s0.287-0.316 0.484-0.397c0.197-0.082 0.414-0.103 0.623-0.061s0.401 0.144 0.552 0.295c0.151 0.151 0.253 0.343 0.295 0.552s0.020 0.426-0.061 0.623c-0.082 0.197-0.22 0.366-0.397 0.484s-0.386 0.182-0.599 0.182c-0.285-0.002-0.559-0.116-0.761-0.318s-0.316-0.475-0.318-0.761zM26.265 21.263h1.777v5.972h-1.777v-5.972z"></path>
<path fill="#fff" style="fill: var(--color1, #fff)" opacity="0.8" d="M35.792 24.25c0.022 0.395-0.035 0.79-0.167 1.163s-0.336 0.716-0.601 1.009-0.585 0.532-0.943 0.701c-0.357 0.169-0.745 0.266-1.139 0.285-0.332 0.016-0.663-0.041-0.97-0.167s-0.583-0.318-0.808-0.562v2.962h-1.777v-8.378h1.777v0.563c0.225-0.244 0.501-0.436 0.808-0.562s0.638-0.183 0.97-0.167c0.394 0.019 0.781 0.116 1.138 0.285s0.677 0.407 0.942 0.699c0.265 0.293 0.469 0.635 0.601 1.007s0.19 0.767 0.169 1.161zM34.015 24.25c-0.007-0.278-0.096-0.548-0.254-0.776s-0.381-0.405-0.64-0.508c-0.258-0.103-0.541-0.128-0.814-0.072s-0.523 0.191-0.719 0.387-0.331 0.447-0.387 0.719c-0.056 0.273-0.031 0.555 0.072 0.814s0.28 0.481 0.508 0.64c0.228 0.159 0.498 0.247 0.776 0.254 0.194 0.012 0.389-0.017 0.57-0.086s0.347-0.176 0.484-0.314c0.137-0.138 0.243-0.304 0.31-0.486s0.095-0.377 0.081-0.571h0.012z"></path>
<path fill="#fff" style="fill: var(--color1, #fff)" opacity="0.8" d="M41.326 25.447c0 1.375-1.185 1.961-2.489 1.961-0.521 0.046-1.043-0.065-1.501-0.318s-0.828-0.638-1.065-1.104l1.552-0.883c0.063 0.216 0.198 0.403 0.382 0.531s0.407 0.19 0.631 0.174c0.433 0 0.646-0.136 0.646-0.373 0-0.658-2.962-0.308-2.962-2.37 0-1.304 1.102-1.961 2.37-1.961 0.468-0.014 0.931 0.097 1.342 0.322s0.753 0.556 0.993 0.958l-1.558 0.818c-0.069-0.157-0.182-0.29-0.325-0.383s-0.31-0.144-0.481-0.144c-0.308 0-0.498 0.119-0.498 0.338 0.024 0.681 2.962 0.225 2.962 2.435z"></path>
<path fill="#fff" style="fill: var(--color1, #fff)" opacity="0.8" d="M47.867 21.264v5.972h-1.778v-0.557c-0.207 0.247-0.469 0.442-0.766 0.569s-0.619 0.181-0.941 0.16c-1.185 0-2.234-0.859-2.234-2.477v-3.668h1.778v3.407c-0.016 0.145 0.001 0.292 0.050 0.43s0.126 0.263 0.229 0.367c0.103 0.104 0.227 0.183 0.364 0.233s0.284 0.068 0.429 0.054c0.652 0 1.108-0.379 1.108-1.226v-3.265h1.76z"></path>
<path fill="#fff" style="fill: var(--color1, #fff)" opacity="0.8" d="M58.142 23.574v3.662h-1.778v-3.508c0-0.593-0.29-0.984-0.859-0.984s-0.936 0.421-0.936 1.126v3.365h-1.778v-3.508c0-0.593-0.284-0.984-0.859-0.984s-0.93 0.421-0.93 1.126v3.365h-1.778v-5.972h1.778v0.551c0.186-0.243 0.429-0.436 0.709-0.562s0.586-0.179 0.891-0.155c0.307-0.015 0.612 0.050 0.886 0.188s0.508 0.345 0.678 0.6c0.198-0.267 0.461-0.479 0.764-0.617s0.635-0.197 0.967-0.171c1.351 0 2.246 0.984 2.246 2.477z"></path>
<path fill="#fff" style="fill: var(--color1, #fff)" opacity="0.8" d="M59.658 21.228c0.733 0 1.327-0.594 1.327-1.327s-0.594-1.327-1.327-1.327c-0.733 0-1.327 0.594-1.327 1.327s0.594 1.327 1.327 1.327z"></path>
<path fill="#fff" style="fill: var(--color1, #fff)" opacity="0.8" d="M21.738 13.999c3.433 0 6.215-2.783 6.215-6.215s-2.783-6.215-6.215-6.215-6.215 2.783-6.215 6.215c0 3.433 2.783 6.215 6.215 6.215z"></path>
<path fill="#fff" style="fill: var(--color1, #fff)" opacity="0.8" d="M35.632 13.999c3.433 0 6.215-2.783 6.215-6.215s-2.783-6.215-6.215-6.215-6.215 2.783-6.215 6.215c0 3.433 2.783 6.215 6.215 6.215z"></path>
<path fill="#fff" style="fill: var(--color1, #fff)" opacity="0.8" d="M14.058 1.569h-12.425v12.425h12.425v-12.425z"></path>
</symbol>
<symbol id="icon-Logo-2" viewBox="0 0 123 32">
<path fill="#fff" style="fill: var(--color1, #fff)" opacity="0.8" d="M3.036 29.238h26.477v-26.477h-26.477v26.477zM24.417 13.452h-5.595v-5.595h5.595v5.595zM8.132 7.857h5.598v10.69h10.688v5.595h-16.286v-16.285zM46.755 2.761c-2.618 0-5.178 0.776-7.355 2.231s-3.874 3.522-4.876 5.941c-1.002 2.419-1.264 5.081-0.753 7.649s1.772 4.927 3.623 6.778c1.851 1.852 4.21 3.112 6.778 3.623s5.23 0.249 7.649-0.753 4.487-2.699 5.941-4.876c1.455-2.177 2.231-4.737 2.231-7.355-0.004-3.51-1.4-6.875-3.882-9.357s-5.847-3.878-9.357-3.882zM46.755 24.142c-1.61 0-3.185-0.478-4.524-1.372s-2.383-2.166-2.999-3.654c-0.616-1.488-0.778-3.125-0.463-4.705s1.090-3.030 2.228-4.169c1.139-1.139 2.59-1.914 4.169-2.228s3.217-0.153 4.705 0.463c1.488 0.616 2.76 1.66 3.654 2.999s1.372 2.913 1.372 4.524c-0.003 2.159-0.862 4.228-2.389 5.754s-3.595 2.385-5.754 2.388zM107.368 2.761c-2.619-0-5.178 0.776-7.355 2.231s-3.874 3.522-4.876 5.941c-1.002 2.419-1.265 5.081-0.754 7.649s1.771 4.927 3.623 6.779c1.851 1.852 4.21 3.113 6.778 3.623s5.229 0.249 7.649-0.753c2.419-1.002 4.486-2.699 5.941-4.876s2.232-4.737 2.232-7.355c-0.004-3.51-1.4-6.874-3.881-9.356s-5.847-3.878-9.356-3.882zM107.368 24.142c-1.61 0-3.185-0.477-4.524-1.372s-2.383-2.166-2.999-3.654-0.778-3.125-0.464-4.705c0.314-1.579 1.090-3.030 2.228-4.169s2.59-1.914 4.169-2.229 3.217-0.153 4.704 0.463c1.489 0.616 2.76 1.66 3.655 2.999 0.894 1.339 1.372 2.913 1.372 4.524-0.003 2.158-0.862 4.227-2.389 5.754-1.526 1.526-3.594 2.385-5.753 2.389zM77.062 2.761c-2.618 0-5.178 0.776-7.355 2.231s-3.874 3.522-4.876 5.941c-1.002 2.419-1.264 5.081-0.753 7.649s1.772 4.927 3.623 6.778c1.851 1.852 4.21 3.112 6.778 3.623s5.23 0.249 7.649-0.753 4.487-2.699 5.941-4.876c1.455-2.177 2.231-4.737 2.231-7.355-0.004-3.51-1.4-6.875-3.882-9.357s-5.847-3.878-9.357-3.882zM77.062 24.142c-1.501 0.001-2.972-0.413-4.252-1.196s-2.319-1.904-3.002-3.24c-0.683-1.336-0.984-2.835-0.869-4.331s0.641-2.931 1.52-4.147c0.879-1.216 2.077-2.165 3.462-2.743s2.902-0.762 4.385-0.532c1.483 0.23 2.873 0.865 4.017 1.836s1.999 2.238 2.468 3.663h-7.73v5.095h7.73c-0.538 1.626-1.574 3.042-2.961 4.046s-3.056 1.546-4.768 1.549z"></path>
</symbol>
<symbol id="icon-Logo-disney" viewBox="0 0 76 32">
<path fill="#fafafa" style="fill: var(--color2, #fafafa)" d="M66.043 13.916c-1.291 0.302-4.703 0.469-4.703 0.469l-0.42 1.363c0 0 1.689-0.145 2.926-0.022 0 0 0.397-0.033 0.442 0.447 0.022 0.492-0.033 1.006-0.033 1.006s-0.033 0.302-0.441 0.38c-0.475 0.078-3.677 0.223-3.677 0.223l-0.519 1.765c0 0-0.188 0.402 0.243 0.291 0.397-0.112 3.754-0.76 4.195-0.67 0.464 0.112 0.994 0.76 0.839 1.341-0.177 0.704-3.533 2.872-5.564 2.726 0 0-1.071 0.067-1.965-1.397-0.861-1.397 0.298-4.023 0.298-4.023s-0.519-1.229-0.132-1.676c0 0 0.221-0.19 0.883-0.246l0.828-1.721c0 0-0.938 0.056-1.491-0.637-0.508-0.67-0.552-0.961-0.155-1.14 0.42-0.223 4.306-0.927 6.978-0.838 0 0 0.939-0.112 1.766 1.531 0 0 0.375 0.67-0.287 0.827zM55.974 20.531c-0.331 0.816-1.248 1.676-2.351 1.151-1.126-0.536-2.904-4.201-2.904-4.201s-0.662-1.363-0.795-1.319c0 0-0.144-0.268-0.221 1.229-0.111 1.486 0.022 4.38-0.586 4.838-0.552 0.447-1.214 0.257-1.59-0.268-0.309-0.525-0.442-1.788-0.265-3.989 0.199-2.201 0.695-4.548 1.325-5.274 0.662-0.737 1.192-0.201 1.391 0 0 0 0.85 0.782 2.285 3.095l0.243 0.425c0 0 1.303 2.201 1.435 2.19 0 0 0.11 0.112 0.199 0.022 0.133-0.034 0.088-0.749 0.088-0.749s-0.243-2.38-1.457-6.403c0 0-0.177-0.514-0.055-1.006 0.11-0.447 0.585-0.223 0.585-0.223s1.833 0.894 2.727 3.911c0.883 3.017 0.287 5.754-0.044 6.57zM46.987 12.787c-0.177 0.313-0.254 0.749-1.016 0.872 0 0-7.397 0.525-7.761 1.050 0 0-0.243 0.313 0.155 0.391 0.42 0.089 2.098 0.313 2.893 0.358 0.861 0 3.754 0.022 4.814 1.341 0 0 0.607 0.626 0.585 2.045-0.022 1.453-0.276 1.967-0.839 2.492-0.585 0.492-5.598 2.771-8.832-0.715 0 0-1.479-1.676 0.519-2.95 0 0 1.435-0.894 5.112 0.145 0 0 1.104 0.402 1.060 0.816-0.066 0.447-0.916 0.894-2.153 0.872-1.192-0.033-2.076-0.615-1.899-0.514 0.166 0.056-1.292-0.715-1.744-0.19-0.442 0.492-0.331 0.782 0.11 1.084 1.104 0.648 5.443 0.413 6.735-1.050 0 0 0.519-0.592-0.265-1.073-0.773-0.447-3.025-0.726-3.897-0.76-0.828-0.045-3.93 0-4.394-0.816 0 0-0.442-0.581 0.044-2.168 0.508-1.676 4.118-2.324 5.686-2.458 0 0 4.306-0.179 5.112 0.715 0 0 0.11 0.201-0.022 0.503zM34.777 22.609c-0.519 0.391-1.623 0.223-1.943-0.223-0.309-0.391-0.42-1.933-0.364-4.358 0.077-2.481 0.11-5.52 0.662-6.012 0.552-0.48 0.883-0.056 1.104 0.268 0.221 0.335 0.508 0.704 0.552 1.475 0.066 0.782 0.254 4.805 0.254 4.805s0.243 3.665-0.254 4.045zM35.881 9.536c-1.524 0.525-2.561 0.358-3.445-0.034-0.386 0.704-0.618 0.916-0.905 0.961-0.442 0.045-0.828-0.67-0.883-0.894-0.088-0.168-0.298-0.469-0.044-1.151-0.861-0.782-0.927-1.832-0.773-2.536 0.199-0.827 1.656-3.933 6.072-4.302 0 0 2.164-0.156 2.539 1.006h0.066c0 0 2.098 0 2.053 1.9 0 1.9-2.318 4.268-4.681 5.084zM37.846 4.128c-1.391 0.223-3.533 2.101-4.56 3.654 1.579 0.291 4.339 0.179 5.575-2.346 0 0 0.585-1.587-1.016-1.307zM31.741 5.357c-0.442 0.726-0.464 1.162-0.254 1.453 0.519-0.782 1.435-2.011 2.815-2.972-1.060 0.112-1.954 0.559-2.561 1.52zM69.355 22.531c-1.016 2.525-1.877 5.084-2.374 8.917 0 0-0.11 0.749-0.717 0.503-0.608-0.223-1.601-1.229-1.822-2.648-0.221-1.855 0.597-4.984 2.263-8.582-0.486-0.782-0.828-1.944-0.552-3.576 0 0 0.442-3.017 3.423-5.743 0 0 0.353-0.302 0.552-0.201 0.243 0.112 0.144 1.073-0.055 1.564-0.177 0.469-1.502 2.793-1.502 2.793s-0.828 1.587-0.596 2.827c1.568-2.436 5.133-7.375 7.342-5.81 1.402 1.006 1.402 4.246 0.353 6.123-0.828 1.486-3.168 4.559-6.293 3.844zM73.971 14.944c-0.817 0.894-2.274 2.592-3.423 4.894 1.214-0.134 2.396-0.816 2.76-1.162 0.585-0.525 1.932-1.944 1.722-3.821 0 0-0.133-0.983-1.060 0.089zM24.509 23.849c-3.908 1.207-7.596 0.648-9.605 0.112-0.055 0.827-0.144 1.173-0.276 1.307-0.155 0.179-1.435 0.916-2.142-0.134-0.309-0.503-0.464-1.408-0.552-2.235-4.527-2.078-6.624-5.14-6.691-5.252-0.11-0.112-1.137-1.196-0.11-2.536 0.961-1.207 4.14-2.425 6.989-2.905 0.11-2.458 0.375-4.358 0.718-5.196 0.409-1.006 0.927-0.112 1.391 0.559 0.375 0.503 0.607 2.659 0.629 4.38 1.855-0.089 2.981 0.045 5.046 0.447 2.716 0.469 4.527 1.877 4.383 3.464-0.133 1.564-1.546 2.212-2.098 2.257s-1.435-0.369-1.435-0.369c-0.618-0.291-0.055-0.559 0.662-0.872 0.795-0.391 0.618-0.782 0.618-0.782-0.287-0.894-3.809-1.486-7.309-1.486 0 1.955 0.077 5.196 0.133 7.084 2.451 0.469 4.284 0.369 4.284 0.369s8.943-0.257 9.197-6.034c0.276-5.788-8.943-11.33-15.733-13.073-6.779-1.799-10.621-0.525-10.952-0.358-0.364 0.179-0.033 0.246-0.033 0.246s0.364 0.056 1.027 0.279c0.662 0.223 0.132 0.559 0.132 0.559-1.159 0.402-2.451 0.168-2.705-0.369-0.254-0.525 0.166-1.006 0.662-1.71 0.464-0.726 0.994-0.704 0.994-0.704 8.391-2.961 18.636 2.346 18.636 2.346 9.583 4.894 11.217 10.649 11.041 12.883-0.155 2.201-0.994 5.922-6.9 7.732zM6.071 15.86c-0.949 0.447-0.287 1.162-0.287 1.162 1.789 1.933 3.975 3.151 6.072 3.911 0.243-3.352 0.221-4.548 0.221-6.235-3.246 0.223-5.123 0.76-6.006 1.162z"></path>
</symbol>
<symbol id="icon-Logo-3" viewBox="0 0 124 32">
<path fill="#fff" style="fill: var(--color1, #fff)" opacity="0.8" d="M14.275 6.419v-3.934h-12.38v27.032h12.38v-3.934c-2.536 0-4.968-1.010-6.762-2.806s-2.801-4.234-2.801-6.775 1.007-4.978 2.801-6.775c1.793-1.797 4.226-2.806 6.762-2.806z"></path>
<path fill="#fff" style="fill: var(--color1, #fff)" opacity="0.8" d="M14.275 6.419v19.163c2.536 0 4.968-1.010 6.762-2.806s2.801-4.234 2.801-6.775c0-2.541-1.007-4.978-2.801-6.775s-4.226-2.806-6.762-2.806z"></path>
<path fill="#fff" style="fill: var(--color1, #fff)" opacity="0.8" d="M30.785 8.825h2.772v13.377h-2.772v-13.377z"></path>
<path fill="#fff" style="fill: var(--color1, #fff)" opacity="0.8" d="M35.108 17.62c0-0.962 0.285-1.903 0.819-2.703s1.293-1.423 2.181-1.79c0.888-0.367 1.865-0.462 2.806-0.272s1.806 0.655 2.483 1.338c0.677 0.683 1.137 1.551 1.321 2.496s0.084 1.923-0.287 2.81c-0.371 0.887-0.997 1.645-1.799 2.175s-1.742 0.811-2.702 0.806c-0.637 0.005-1.269-0.117-1.858-0.36s-1.124-0.601-1.573-1.054c-0.449-0.453-0.804-0.991-1.043-1.582s-0.358-1.225-0.349-1.864zM42.056 17.62c-0.011-0.415-0.144-0.817-0.382-1.157s-0.571-0.602-0.956-0.753c-0.386-0.151-0.807-0.185-1.212-0.098s-0.775 0.293-1.064 0.59c-0.289 0.297-0.484 0.673-0.561 1.081s-0.032 0.829 0.129 1.212 0.431 0.709 0.776 0.938c0.345 0.23 0.75 0.352 1.164 0.352 0.282 0.006 0.562-0.047 0.823-0.155s0.496-0.268 0.692-0.472c0.196-0.203 0.348-0.445 0.446-0.71s0.142-0.547 0.126-0.829h0.018z"></path>
<path fill="#fff" style="fill: var(--color1, #fff)" opacity="0.8" d="M55.721 13.038v8.711c0 3.073-2.402 4.379-4.832 4.379-0.857 0.070-1.717-0.1-2.482-0.493s-1.407-0.991-1.851-1.729l2.338-1.352c0.189 0.383 0.491 0.698 0.864 0.905s0.8 0.295 1.224 0.252c0.27 0.033 0.544 0.006 0.803-0.079s0.495-0.227 0.693-0.414c0.198-0.188 0.352-0.416 0.451-0.671s0.141-0.527 0.122-0.799v-0.842c-0.323 0.392-0.732 0.703-1.195 0.909s-0.968 0.3-1.475 0.276c-1.225 0-2.4-0.488-3.266-1.356s-1.353-2.045-1.353-3.273 0.487-2.405 1.353-3.273c0.866-0.868 2.041-1.356 3.266-1.356 0.506-0.024 1.011 0.071 1.475 0.276s0.873 0.517 1.195 0.909v-0.926l2.67-0.056zM53.051 17.435c0.018-0.443-0.095-0.881-0.328-1.259s-0.572-0.676-0.975-0.859c-0.403-0.182-0.852-0.24-1.288-0.165s-0.84 0.279-1.159 0.586c-0.319 0.307-0.54 0.702-0.633 1.136s-0.055 0.885 0.11 1.296c0.165 0.411 0.449 0.764 0.815 1.012s0.799 0.382 1.241 0.382c0.289 0.021 0.579-0.019 0.851-0.118s0.521-0.253 0.73-0.454c0.209-0.201 0.374-0.443 0.483-0.711s0.162-0.557 0.153-0.847z"></path>
<path fill="#fff" style="fill: var(--color1, #fff)" opacity="0.8" d="M57.282 17.62c0-0.962 0.285-1.902 0.818-2.701s1.291-1.422 2.178-1.79c0.887-0.368 1.862-0.463 2.804-0.275s1.805 0.652 2.483 1.333c0.678 0.681 1.139 1.548 1.325 2.491s0.089 1.921-0.28 2.809c-0.369 0.888-0.992 1.646-1.791 2.179s-1.737 0.816-2.697 0.815c-0.638 0.006-1.272-0.115-1.862-0.358s-1.127-0.6-1.578-1.053c-0.451-0.453-0.807-0.991-1.048-1.583s-0.36-1.227-0.353-1.866zM64.23 17.62c-0.011-0.415-0.144-0.818-0.382-1.158s-0.571-0.602-0.958-0.753c-0.386-0.151-0.808-0.184-1.213-0.096s-0.775 0.295-1.064 0.593c-0.289 0.298-0.483 0.675-0.559 1.084s-0.029 0.83 0.133 1.212c0.162 0.382 0.434 0.708 0.78 0.937s0.752 0.349 1.167 0.348c0.282 0.006 0.562-0.047 0.823-0.155s0.496-0.268 0.692-0.472c0.196-0.203 0.348-0.445 0.446-0.71s0.142-0.547 0.126-0.829h0.009z"></path>
<path fill="#fff" style="fill: var(--color1, #fff)" opacity="0.8" d="M68.249 10.584c0-0.326 0.097-0.645 0.278-0.915s0.438-0.482 0.738-0.607c0.3-0.125 0.631-0.157 0.95-0.094s0.612 0.22 0.842 0.451c0.23 0.23 0.387 0.524 0.45 0.844s0.031 0.651-0.093 0.952c-0.125 0.301-0.336 0.558-0.606 0.739s-0.589 0.278-0.914 0.278c-0.434-0.005-0.85-0.18-1.157-0.488s-0.482-0.724-0.487-1.16zM68.517 13.038h2.772v9.165h-2.772v-9.165z"></path>
<path fill="#fff" style="fill: var(--color1, #fff)" opacity="0.8" d="M83.151 17.62c0.031 0.61-0.058 1.219-0.263 1.794s-0.521 1.103-0.931 1.555c-0.41 0.452-0.904 0.818-1.456 1.077s-1.148 0.407-1.757 0.434c-0.516 0.034-1.034-0.048-1.513-0.242s-0.91-0.494-1.258-0.878v4.527h-2.772v-12.849h2.772v0.861c0.348-0.383 0.778-0.681 1.258-0.874s0.997-0.274 1.513-0.237c0.606 0.027 1.201 0.174 1.751 0.432s1.043 0.621 1.452 1.070c0.409 0.449 0.726 0.974 0.933 1.545s0.299 1.178 0.272 1.785zM80.38 17.62c-0.011-0.43-0.148-0.847-0.395-1.199s-0.591-0.623-0.991-0.78c-0.4-0.157-0.837-0.191-1.256-0.1s-0.803 0.305-1.102 0.613c-0.299 0.309-0.501 0.699-0.579 1.122s-0.031 0.859 0.136 1.255c0.168 0.396 0.449 0.733 0.807 0.97s0.778 0.362 1.208 0.36c0.294 0.012 0.587-0.037 0.86-0.146s0.521-0.275 0.726-0.486 0.363-0.464 0.464-0.741c0.101-0.277 0.142-0.572 0.121-0.866z"></path>
<path fill="#fff" style="fill: var(--color1, #fff)" opacity="0.8" d="M91.587 19.453c0 2.111-1.848 3.009-3.806 3.009-0.799 0.072-1.601-0.098-2.302-0.487s-1.271-0.981-1.634-1.698l2.384-1.352c0.094 0.33 0.3 0.618 0.58 0.815s0.621 0.292 0.963 0.268c0.656 0 0.989-0.204 0.989-0.574 0-1.009-4.499-0.472-4.499-3.647 0-2 1.681-2.999 3.585-2.999 0.723-0.033 1.443 0.132 2.080 0.476s1.17 0.854 1.542 1.477l-2.384 1.259c-0.105-0.239-0.277-0.442-0.495-0.585s-0.473-0.22-0.733-0.221c-0.481 0-0.767 0.185-0.767 0.509 0 1.055 4.499 0.361 4.499 3.749z"></path>
<path fill="#fff" style="fill: var(--color1, #fff)" opacity="0.8" d="M101.629 13.038v9.165h-2.771v-0.861c-0.315 0.381-0.715 0.683-1.167 0.881s-0.945 0.286-1.438 0.258c-1.848 0-3.428-1.324-3.428-3.796v-5.647h2.772v5.23c-0.022 0.219 0.004 0.439 0.076 0.647s0.188 0.397 0.339 0.556c0.152 0.158 0.337 0.282 0.541 0.362s0.423 0.115 0.642 0.101c0.998 0 1.7-0.592 1.7-1.852v-5.045h2.735z"></path>
<path fill="#fff" style="fill: var(--color1, #fff)" opacity="0.8" d="M117.336 16.574v5.629h-2.772v-5.388c0-0.926-0.434-1.5-1.312-1.5s-1.432 0.639-1.432 1.722v5.166h-2.771v-5.388c0-0.926-0.434-1.5-1.312-1.5s-1.432 0.639-1.432 1.722v5.166h-2.772v-9.165h2.772v0.842c0.287-0.372 0.662-0.667 1.091-0.858 0.429-0.191 0.899-0.271 1.367-0.235 0.468-0.025 0.936 0.074 1.355 0.285s0.777 0.528 1.038 0.919c0.305-0.409 0.708-0.734 1.171-0.944s0.973-0.3 1.48-0.259c2.162 0 3.529 1.5 3.529 3.786z"></path>
<path fill="#fff" style="fill: var(--color1, #fff)" opacity="0.8" d="M119.664 12.982c1.123 0 2.033-0.912 2.033-2.037s-0.91-2.037-2.033-2.037c-1.123 0-2.033 0.912-2.033 2.037s0.91 2.037 2.033 2.037z"></path>
</symbol>
<symbol id="icon-facebook-white" viewBox="0 0 32 32">
<path fill="#fff" style="fill: var(--color1, #fff)" d="M27.614 2.957h-23.217c-0.381 0-0.745 0.151-1.015 0.42s-0.42 0.634-0.42 1.015v23.217c0 0.188 0.037 0.375 0.109 0.549s0.178 0.332 0.311 0.465 0.291 0.239 0.465 0.311c0.174 0.072 0.361 0.109 0.549 0.109h12.496v-10.109h-3.391v-3.913h3.391v-2.935c-0.070-0.689 0.011-1.385 0.238-2.039s0.595-1.251 1.077-1.748c0.482-0.497 1.067-0.883 1.714-1.13s1.34-0.35 2.031-0.3c1.015-0.006 2.030 0.046 3.039 0.157v3.522h-2.074c-1.643 0-1.957 0.783-1.957 1.917v2.517h3.913l-0.509 3.913h-3.404v10.148h6.652c0.188 0 0.375-0.037 0.549-0.109s0.332-0.178 0.465-0.311 0.239-0.291 0.311-0.465c0.072-0.174 0.109-0.361 0.109-0.549v-23.217c0-0.188-0.037-0.375-0.109-0.549s-0.178-0.332-0.311-0.465-0.291-0.239-0.465-0.311c-0.174-0.072-0.361-0.109-0.549-0.109z"></path>
</symbol>
<symbol id="icon-instagram-white" viewBox="0 0 32 32">
<path fill="#fff" style="fill: var(--color1, #fff); stroke: var(--color1, #fff)" stroke="#fff" stroke-linejoin="round" stroke-linecap="round" stroke-miterlimit="4" stroke-width="1.4227" d="M22 4.174h-11.884c-3.282 0-5.942 2.66-5.942 5.942v11.884c0 3.282 2.66 5.942 5.942 5.942h11.884c3.282 0 5.942-2.66 5.942-5.942v-11.884c0-3.282-2.66-5.942-5.942-5.942z"></path>
<path fill="#111113" style="fill: var(--color2, #111113); stroke: var(--color2, #111113)" stroke="#111113" stroke-linejoin="round" stroke-linecap="round" stroke-miterlimit="4" stroke-width="0.6957" d="M20.812 15.311c0.147 0.989-0.022 1.999-0.483 2.887s-1.189 1.607-2.082 2.057c-0.893 0.45-1.905 0.606-2.892 0.447s-1.899-0.625-2.606-1.332c-0.707-0.707-1.173-1.619-1.332-2.606s-0.002-1.999 0.447-2.892c0.45-0.893 1.169-1.622 2.057-2.082s1.898-0.629 2.887-0.483c1.009 0.15 1.943 0.62 2.664 1.341s1.191 1.655 1.341 2.664z"></path>
<path fill="#111113" style="fill: var(--color2, #111113)" d="M22.812 10.054c0 0.415-0.336 0.751-0.751 0.751s-0.751-0.336-0.751-0.751c0-0.415 0.336-0.751 0.751-0.751s0.751 0.336 0.751 0.751z"></path>
</symbol>
<symbol id="icon-twitter-white" viewBox="0 0 32 32">
<path fill="#fff" style="fill: var(--color1, #fff); stroke: var(--color1, #fff)" stroke="#fff" stroke-linejoin="round" stroke-linecap="round" stroke-miterlimit="4" stroke-width="1.3913" d="M30.318 5.797c0 0-0.954 2.861-2.725 4.632 2.18 13.623-12.806 23.568-24.522 15.803 2.997 0.136 5.994-0.817 8.174-2.725-6.812-2.043-10.217-10.081-6.812-16.348 2.997 3.542 7.629 5.586 12.261 5.449-1.226-5.722 5.449-8.991 9.536-5.177 1.499 0 4.087-1.635 4.087-1.635z"></path>
</symbol>
<symbol id="icon-pinterest-white" viewBox="0 0 32 32">
<path fill="#fff" style="fill: var(--color1, #fff)" d="M15.995 2.957c-7.211 0-13.038 5.838-13.038 13.038 0 5.526 3.434 10.248 8.284 12.147-0.118-1.030-0.215-2.618 0.043-3.745 0.236-1.019 1.524-6.482 1.524-6.482s-0.386-0.783-0.386-1.932c0-1.814 1.052-3.166 2.361-3.166 1.116 0 1.653 0.837 1.653 1.835 0 1.116-0.708 2.79-1.084 4.346-0.311 1.298 0.655 2.361 1.932 2.361 2.318 0 4.099-2.447 4.099-5.966 0-3.123-2.243-5.301-5.451-5.301-3.713 0-5.891 2.779-5.891 5.655 0 1.116 0.429 2.318 0.966 2.972 0.107 0.129 0.118 0.247 0.086 0.376-0.097 0.408-0.322 1.298-0.365 1.481-0.054 0.236-0.193 0.29-0.44 0.172-1.61-0.773-2.618-3.155-2.618-5.065 0-4.11 2.983-7.887 8.617-7.887 4.518 0 8.038 3.219 8.038 7.533 0 4.496-2.833 8.113-6.761 8.113-1.32 0-2.565-0.687-2.983-1.502 0 0-0.655 2.49-0.816 3.101-0.29 1.137-1.084 2.554-1.62 3.423 1.223 0.376 2.511 0.579 3.863 0.579 7.2 0 13.038-5.838 13.038-13.038-0.011-7.211-5.848-13.049-13.049-13.049z"></path>
</symbol>
<symbol id="icon-linkedin-white" viewBox="0 0 32 32">
<path fill="#fff" style="fill: var(--color1, #fff)" d="M27.739 5.987v20.026c0 0.458-0.182 0.897-0.506 1.221s-0.763 0.506-1.221 0.506h-20.026c-0.458 0-0.897-0.182-1.221-0.506s-0.506-0.763-0.506-1.221v-20.026c0-0.458 0.182-0.897 0.506-1.221s0.763-0.506 1.221-0.506h20.026c0.458 0 0.897 0.182 1.221 0.506s0.506 0.763 0.506 1.221zM11.166 13.238h-3.453v11.049h3.453v-11.049zM11.477 9.44c0.002-0.261-0.048-0.52-0.146-0.762s-0.243-0.462-0.427-0.648-0.402-0.334-0.642-0.436c-0.241-0.102-0.499-0.155-0.76-0.157h-0.062c-0.531 0-1.040 0.211-1.416 0.587s-0.587 0.885-0.587 1.416c0 0.531 0.211 1.040 0.587 1.416s0.885 0.587 1.416 0.587c0.261 0.006 0.521-0.039 0.765-0.133s0.467-0.235 0.656-0.415c0.189-0.18 0.341-0.396 0.447-0.635s0.163-0.496 0.17-0.758v-0.062zM24.286 17.574c0-3.321-2.113-4.613-4.212-4.613-0.687-0.034-1.372 0.112-1.985 0.425s-1.134 0.781-1.509 1.357h-0.097v-1.505h-3.246v11.049h3.453v-5.877c-0.050-0.602 0.14-1.199 0.528-1.662s0.943-0.754 1.544-0.81h0.131c1.098 0 1.913 0.69 1.913 2.431v5.918h3.453l0.028-6.712z"></path>
</symbol>
<symbol id="icon-youtube-white" viewBox="0 0 32 32">
<path fill="#fff" style="fill: var(--color1, #fff)" d="M26.164 7.411c-2.026-0.553-10.18-0.553-10.18-0.553s-8.154 0.017-10.18 0.569c-1.122 0.301-2.009 1.189-2.311 2.311-0.536 2.026-0.536 6.262-0.536 6.262s0 4.236 0.553 6.279c0.301 1.122 1.189 2.009 2.311 2.311 2.026 0.553 10.18 0.553 10.18 0.553s8.154 0 10.18-0.553c1.122-0.301 2.009-1.189 2.311-2.311 0.553-2.026 0.553-6.279 0.553-6.279s-0.017-4.236-0.569-6.279c-0.301-1.122-1.189-2.009-2.311-2.311zM20.152 16l-6.765 3.918v-7.836l6.765 3.918z"></path>
</symbol>
<symbol id="icon-mail" viewBox="0 0 33 32">
<path fill="#fff" style="fill: var(--color1, #fff)" d="M27.2 5.333h-21.333c-1.473 0-2.653 1.193-2.653 2.667l-0.013 16c0 1.473 1.193 2.667 2.667 2.667h21.333c1.473 0 2.667-1.193 2.667-2.667v-16c0-1.473-1.193-2.667-2.667-2.667zM27.2 10.667l-10.667 6.667-10.667-6.667v-2.667l10.667 6.667 10.667-6.667v2.667z"></path>
</symbol>
<symbol id="icon-phone" viewBox="0 0 33 32">
<path fill="#fff" style="fill: var(--color1, #fff)" d="M9.367 14.393c1.92 3.773 5.007 6.86 8.787 8.78l2.933-2.94c0.367-0.367 0.893-0.473 1.353-0.327 1.493 0.493 3.1 0.76 4.76 0.76 0.74 0 1.333 0.593 1.333 1.333v4.667c0 0.74-0.593 1.333-1.333 1.333-12.52 0-22.667-10.147-22.667-22.667 0-0.74 0.6-1.333 1.333-1.333h4.667c0.74 0 1.333 0.593 1.333 1.333 0 1.66 0.267 3.267 0.76 4.76 0.147 0.46 0.040 0.987-0.327 1.353l-2.933 2.947z"></path>
</symbol>
<symbol id="icon-clock" viewBox="0 0 33 32">
<path fill="#fff" style="fill: var(--color1, #fff)" d="M16.527 2.667c-7.367 0-13.327 5.967-13.327 13.333s5.96 13.333 13.327 13.333c7.367 0 13.34-5.967 13.34-13.333s-5.973-13.333-13.34-13.333zM16.533 26.667c-5.893 0-10.667-4.773-10.667-10.667s4.773-10.667 10.667-10.667c5.893 0 10.667 4.773 10.667 10.667s-4.773 10.667-10.667 10.667z"></path>
<path fill="#fff" style="fill: var(--color1, #fff)" d="M17.2 9.333h-2v8l6.993 4.2 1.007-1.64-6-3.56v-7z"></path>
</symbol>
<symbol id="icon-cooker" viewBox="0 0 32 32">
<path d="M6.628 31.044v0.47c-0.001 0.128-0.035 0.251-0.095 0.342s-0.142 0.142-0.228 0.143h-1.599c-0.085-0.001-0.167-0.053-0.228-0.143s-0.095-0.214-0.095-0.342v-0.474h-3.096c-0.34-0.006-0.664-0.211-0.904-0.572s-0.377-0.848-0.382-1.359v-27.175c0.004-0.511 0.141-1 0.381-1.361s0.565-0.567 0.905-0.573h29.427c0.34 0.006 0.665 0.212 0.905 0.573s0.377 0.85 0.381 1.361v27.175c-0.004 0.511-0.141 1-0.381 1.361s-0.565 0.567-0.905 0.573h-2.753v0.47c-0.001 0.128-0.035 0.251-0.095 0.342s-0.142 0.142-0.228 0.143h-1.596c-0.085-0.001-0.167-0.053-0.227-0.143s-0.095-0.214-0.095-0.342v-0.474l-19.091 0.004zM4.948 17.051c0.21-0.892 0.512-1.73 0.893-2.483 0.275-0.599 0.637-1.094 1.060-1.449 0.039-0.027 0.073-0.066 0.102-0.113s0.051-0.103 0.065-0.164c0.014-0.060 0.020-0.125 0.018-0.189s-0.013-0.127-0.031-0.185c-0.037-0.117-0.103-0.208-0.184-0.252s-0.17-0.038-0.248 0.017c-0.518 0.424-0.963 1.022-1.302 1.747-0.426 0.841-0.761 1.776-0.995 2.773-0.013 0.061-0.018 0.126-0.014 0.19s0.016 0.127 0.035 0.184c0.020 0.057 0.047 0.108 0.080 0.15s0.071 0.073 0.112 0.093c0.041 0.020 0.084 0.027 0.127 0.021s0.084-0.023 0.122-0.053c0.038-0.030 0.072-0.070 0.1-0.119s0.049-0.106 0.062-0.168zM3.333 9.705h25.026c0.173 0.001 0.339 0.105 0.461 0.289s0.192 0.434 0.192 0.694v14.905c0 0.261-0.069 0.511-0.191 0.697s-0.289 0.289-0.462 0.29h-25.026c-0.174-0.001-0.34-0.105-0.462-0.29s-0.191-0.435-0.191-0.697v-14.909c0-0.129 0.017-0.257 0.050-0.376s0.081-0.227 0.142-0.318c0.061-0.091 0.133-0.163 0.212-0.212s0.164-0.074 0.25-0.073zM3.565 11.032v14.208h24.56v-14.13c0-0.024-0.083-0.078-0.125-0.078h-24.435zM1.742 1.68c-0.166 0.005-0.324 0.107-0.441 0.285s-0.183 0.417-0.184 0.667v25.781c0 0.253 0.067 0.496 0.185 0.676s0.279 0.282 0.448 0.284c10.818 0 18.089 0 28.5 0 0.167-0.002 0.328-0.103 0.446-0.281s0.185-0.419 0.187-0.671v-25.789c-0.001-0.252-0.068-0.493-0.187-0.671s-0.279-0.279-0.446-0.281h-28.508z"></path>
<path d="M4.839 3.305c0.304 0 0.602 0.136 0.855 0.39s0.45 0.616 0.567 1.039c0.117 0.423 0.147 0.888 0.088 1.337s-0.206 0.861-0.421 1.185c-0.215 0.324-0.489 0.544-0.788 0.633s-0.608 0.043-0.889-0.132c-0.281-0.175-0.522-0.472-0.691-0.852s-0.259-0.828-0.259-1.286c-0-0.304 0.039-0.605 0.116-0.886s0.191-0.536 0.334-0.751c0.143-0.215 0.313-0.385 0.5-0.502s0.387-0.176 0.589-0.175z"></path>
<path d="M9.552 3.305c0.304 0 0.602 0.136 0.855 0.39s0.45 0.616 0.567 1.039c0.117 0.423 0.147 0.888 0.088 1.337s-0.206 0.861-0.421 1.185c-0.215 0.324-0.489 0.544-0.788 0.633s-0.608 0.043-0.889-0.132c-0.281-0.175-0.522-0.472-0.691-0.852s-0.259-0.828-0.259-1.286c0-0.614 0.162-1.203 0.451-1.637s0.68-0.678 1.088-0.678z"></path>
<path d="M14.266 3.305c0.304 0 0.602 0.136 0.855 0.39s0.45 0.616 0.567 1.039c0.116 0.423 0.147 0.888 0.087 1.337s-0.206 0.861-0.421 1.185c-0.215 0.324-0.489 0.544-0.788 0.633s-0.608 0.043-0.889-0.132c-0.281-0.175-0.522-0.472-0.691-0.852s-0.259-0.828-0.259-1.286c0-0.614 0.162-1.203 0.451-1.637s0.68-0.678 1.088-0.678z"></path>
<path d="M23.836 4.958c-0.123 0-0.241-0.073-0.328-0.204s-0.136-0.308-0.136-0.493c0-0.185 0.049-0.362 0.136-0.493s0.205-0.204 0.328-0.204h3.706c0.123 0 0.241 0.073 0.328 0.204s0.136 0.308 0.136 0.493c0 0.185-0.049 0.362-0.136 0.493s-0.205 0.204-0.328 0.204h-3.706zM23.836 7.848c-0.123 0-0.241-0.073-0.328-0.204s-0.136-0.308-0.136-0.493c0-0.185 0.049-0.362 0.136-0.493s0.205-0.204 0.328-0.204h3.706c0.061 0 0.121 0.018 0.177 0.053s0.107 0.086 0.15 0.151c0.043 0.065 0.077 0.142 0.1 0.226s0.035 0.175 0.035 0.267-0.012 0.182-0.035 0.267c-0.023 0.085-0.057 0.161-0.1 0.226s-0.094 0.116-0.15 0.151c-0.056 0.035-0.117 0.053-0.177 0.053h-3.706z"></path>
</symbol>
<symbol id="icon-dishwash-machine" viewBox="0 0 25 32">
<path d="M20.649 3.549c0.489 0 0.886 0.411 0.886 0.919s-0.396 0.919-0.886 0.919c-0.489 0-0.886-0.411-0.886-0.919s0.396-0.919 0.886-0.919zM16.655 23.469c0.226-0.531 0.361-1.255 0.356-2.052-0.007-1.63-0.602-2.951-1.325-2.948s-1.305 1.328-1.295 2.958c0.005 0.797 0.148 1.521 0.379 2.052 0.632 1.201 1.26 1.073 1.884-0.010zM7.793 26.823c0.013 0.029 0.025 0.057 0.033 0.089h1.827c-0.221-0.583-0.401-1.237-0.537-1.94-0.168-0.878-0.261-1.841-0.266-2.849v-0.023c-0.008-2.049 0.359-3.914 0.956-5.273 0.118-0.266 0.243-0.513 0.379-0.742-0.1-0.089-0.203-0.161-0.309-0.216-0.143-0.075-0.289-0.12-0.432-0.125l-0.038 0.003v-0.003h-0.002c-0.617 0.003-1.209 0.651-1.668 1.693-0.519 1.185-0.838 2.833-0.83 4.661v0.018c0.005 0.917 0.090 1.789 0.241 2.581 0.153 0.805 0.376 1.529 0.647 2.128zM6.518 26.911c-0.218-0.578-0.399-1.229-0.534-1.932-0.168-0.88-0.263-1.844-0.268-2.857v-0.023c-0.008-2.049 0.359-3.914 0.956-5.273 0.657-1.5 1.616-2.432 2.717-2.437v-0.003h0.002c0.023 0 0.045 0 0.065 0.003 0.319 0.008 0.625 0.094 0.913 0.247 0.208 0.109 0.409 0.255 0.602 0.435 0.467-0.435 0.989-0.68 1.551-0.682v-0.003h0.002c0.023 0 0.045 0 0.065 0.003 0.321 0.010 0.632 0.096 0.926 0.255 0.206 0.109 0.401 0.253 0.59 0.427 0.467-0.435 0.989-0.68 1.551-0.682v-0.003h0.003c0.023 0 0.045 0 0.068 0.003 1.081 0.031 2.027 0.951 2.687 2.425 0.61 1.359 0.994 3.227 1.004 5.279 0.005 0.984-0.075 1.922-0.223 2.773-0.131 0.747-0.314 1.438-0.539 2.049h1.997c0.12 0 0.233-0.052 0.314-0.135s0.13-0.198 0.13-0.326v-13.682c0-0.125-0.050-0.24-0.13-0.323s-0.191-0.135-0.311-0.135h-15.887c-0.12 0-0.231 0.052-0.311 0.135s-0.13 0.198-0.13 0.323v13.68c0 0.125 0.050 0.24 0.13 0.323s0.191 0.135 0.311 0.135h1.751v0.003zM10.922 26.813c0.015 0.031 0.028 0.065 0.038 0.099h1.829c-0.231-0.604-0.416-1.286-0.552-2.018-0.158-0.852-0.246-1.786-0.251-2.771v-0.023c-0.008-2.049 0.359-3.914 0.956-5.273 0.115-0.266 0.243-0.513 0.379-0.742-0.1-0.089-0.201-0.159-0.304-0.214-0.146-0.078-0.291-0.122-0.437-0.128l-0.038 0.003v-0.003h-0.002c-0.617 0.003-1.209 0.651-1.668 1.693-0.519 1.185-0.838 2.833-0.83 4.661v0.018c0.005 0.914 0.090 1.784 0.241 2.573 0.148 0.807 0.371 1.529 0.64 2.125zM14.013 26.711c0.028 0.065 0.045 0.133 0.055 0.201h3.314c0.008-0.073 0.025-0.146 0.055-0.216 0.251-0.596 0.454-1.307 0.592-2.099 0.135-0.776 0.208-1.62 0.203-2.497-0.010-1.836-0.344-3.49-0.876-4.674-0.459-1.021-1.041-1.659-1.646-1.682l-0.038 0.003v-0.003h-0.003c-0.617 0.003-1.209 0.651-1.669 1.693-0.519 1.185-0.838 2.833-0.83 4.661v0.018c0.005 0.883 0.085 1.729 0.228 2.505 0.146 0.792 0.356 1.5 0.612 2.091zM4.767 11.039h15.887c0.459 0 0.876 0.195 1.177 0.508s0.489 0.747 0.489 1.224v13.68c0 0.474-0.188 0.906-0.489 1.219l-0.003 0.005c-0.301 0.312-0.718 0.508-1.174 0.508h-15.887c-0.459 0-0.876-0.195-1.179-0.508-0.301-0.313-0.489-0.745-0.489-1.221v-13.682c0-0.477 0.188-0.909 0.489-1.224 0.301-0.313 0.72-0.508 1.179-0.508zM4.122 3.549c0.489 0 0.886 0.411 0.886 0.919s-0.396 0.919-0.886 0.919c-0.489 0-0.886-0.411-0.886-0.919s0.396-0.919 0.886-0.919zM7.956 3.456h9.507v2.026h-9.507v-2.026zM1.164 7.727h23.008v-6.076c0-0.122-0.048-0.232-0.125-0.313s-0.183-0.13-0.301-0.13h-22.154c-0.118 0-0.223 0.049-0.301 0.13s-0.125 0.19-0.125 0.313v6.076zM25.333 30.349c0 0.453-0.178 0.867-0.467 1.167s-0.687 0.484-1.124 0.484h-22.152c-0.437 0-0.836-0.185-1.124-0.484-0.289-0.302-0.467-0.713-0.467-1.169v-28.695c0-0.453 0.178-0.867 0.467-1.167s0.685-0.484 1.124-0.484h22.154c0.437 0 0.835 0.185 1.124 0.484s0.467 0.714 0.467 1.167c-0.003 10.034-0.003 18.633-0.003 28.698zM24.172 8.935h-23.008v21.412c0 0.122 0.048 0.232 0.125 0.312s0.183 0.13 0.301 0.13h22.154c0.118 0 0.223-0.049 0.301-0.13s0.125-0.19 0.125-0.312v-21.412z"></path>
</symbol>
<symbol id="icon-fridge" viewBox="0 0 19 32">
<path d="M1.602 0h15.462c0.441 0 0.843 0.18 1.132 0.469s0.47 0.69 0.47 1.13v26.927c0 0.44-0.18 0.841-0.47 1.13s-0.691 0.469-1.132 0.469h-1.276v0.708c0 0.643-0.527 1.169-1.172 1.169s-1.172-0.526-1.172-1.169v-0.708h-8.183v0.708c0 0.643-0.527 1.169-1.172 1.169s-1.172-0.526-1.172-1.169v-0.708h-1.318c-0.441 0-0.843-0.18-1.132-0.469s-0.47-0.69-0.47-1.13v-26.927c0-0.44 0.18-0.841 0.47-1.13s0.691-0.469 1.132-0.469zM2.661 11.69c0-0.349 0.284-0.633 0.634-0.633s0.634 0.284 0.634 0.633v5.313c0 0.349-0.284 0.633-0.634 0.633s-0.634-0.284-0.634-0.633v-5.313zM2.661 2.706c0-0.349 0.284-0.633 0.634-0.633s0.634 0.284 0.634 0.633v3.945c0 0.349-0.284 0.633-0.634 0.633s-0.634-0.284-0.634-0.633v-3.945zM1.271 8.69h16.128v-7.091c0-0.091-0.037-0.174-0.099-0.234-0.060-0.060-0.144-0.099-0.235-0.099h-15.462c-0.091 0-0.175 0.036-0.235 0.099-0.060 0.060-0.099 0.143-0.099 0.234v7.091h0.003zM17.396 9.958h-16.125v18.565c0 0.091 0.037 0.174 0.099 0.234 0.060 0.060 0.143 0.099 0.235 0.099h15.46c0.091 0 0.175-0.037 0.235-0.099 0.060-0.060 0.099-0.143 0.099-0.234v-18.565h-0.003z"></path>
</symbol>
<symbol id="icon-more" viewBox="0 0 32 32">
<path stroke-linejoin="round" stroke-linecap="round" stroke-miterlimit="4" stroke-width="2.6667" d="M12 24l8-8-8-8"></path>
</symbol>
<symbol id="icon-snow" viewBox="0 0 29 32">
<path d="M15.996 0v4.044l2.749-2.607 1.87 1.961-4.62 4.38v5.859l5.131-2.958 1.476-6.135 2.637 0.635-0.874 3.633 3.477-2.005 1.359 2.352-3.506 2.023 3.636 1.073-0.767 2.599-6.109-1.805-5.069 2.919 5.118 2.951 6.060-1.789 0.767 2.596-3.587 1.060 3.477 2.005-1.359 2.351-3.509-2.021 0.884 3.682-2.637 0.635-1.489-6.185-5.118-2.951v5.885l4.62 4.38-1.87 1.961-2.749-2.607v4.075h-2.721v-4.039l-2.713 2.573-1.87-1.964 4.583-4.344v-5.885l-5.055 2.914-1.489 6.185-2.637-0.635 0.884-3.682-3.532 2.036-1.362-2.351 3.503-2.018-3.587-1.060 0.767-2.599 6.060 1.792 5.118-2.951-5.068-2.922-6.109 1.805-0.767-2.599 3.636-1.073-3.535-2.039 1.362-2.352 3.503 2.021-0.874-3.633 2.637-0.635 1.476 6.135 5.068 2.919v-5.857l-4.583-4.344 1.87-1.961 2.713 2.57v-4.008h2.721z"></path>
</symbol>
<symbol id="icon-burger-open" viewBox="0 0 32 32">
<path fill="#fff" style="fill: var(--color1, #fff)" d="M2.667 20.667v2.667h26.667v-2.667h-26.667zM2.667 14v2.667h26.667v-2.667h-26.667zM2.667 7.333v2.667h26.667v-2.667h-26.667z"></path>
</symbol>
</defs>
</svg>
