<svg aria-hidden="true" style="position: absolute; width: 0; height: 0; overflow: hidden;" version="1.1" xmlns="http://www.w3.org/2000/svg" xmlns:xlink="http://www.w3.org/1999/xlink">
<defs>
<symbol id="icon-next" viewBox="0 0 32 32">
<path stroke="#fff" stroke-linejoin="round" stroke-linecap="round" stroke-miterlimit="4" stroke-width="0.3299" d="M12 24l8-8-8-8"></path>
</symbol>
<symbol id="icon-previous" viewBox="0 0 32 32">
<path stroke="#fff" stroke-linejoin="round" stroke-linecap="round" stroke-miterlimit="4" stroke-width="0.3299" d="M20 8l-8 8 8 8"></path>
</symbol>
<symbol id="icon-credit-card" viewBox="0 0 32 32">
<path fill="none" stroke="#fff" style="stroke: var(--color1, #fff)" stroke-linejoin="round" stroke-linecap="round" stroke-miterlimit="4" stroke-width="2.0645" d="M26.666 6.667h-21.333c-1.473 0-2.667 1.194-2.667 2.667v13.333c0 1.473 1.194 2.667 2.667 2.667h21.333c1.473 0 2.667-1.194 2.667-2.667v-13.333c0-1.473-1.194-2.667-2.667-2.667z"></path>
<path fill="none" stroke="#fff" style="stroke: var(--color1, #fff)" stroke-linejoin="round" stroke-linecap="round" stroke-miterlimit="4" stroke-width="2.0645" d="M2.666 13.333h26.667"></path>
</symbol>
<symbol id="icon-facebook" viewBox="0 0 31 32">
<path fill="#00d700" style="fill: var(--color2, #00d700)" d="M26.685 3.235h-22.723c-0.372 0-0.73 0.148-0.993 0.411s-0.411 0.621-0.411 0.993v22.723c0 0.184 0.036 0.367 0.107 0.537s0.174 0.325 0.304 0.456c0.13 0.13 0.285 0.234 0.456 0.304s0.353 0.107 0.537 0.107h12.23v-9.894h-3.319v-3.83h3.319v-2.872c-0.069-0.674 0.011-1.356 0.233-1.996s0.582-1.224 1.054-1.711 1.045-0.864 1.678-1.106c0.633-0.242 1.312-0.342 1.988-0.294 0.994-0.006 1.987 0.045 2.974 0.153v3.447h-2.030c-1.608 0-1.915 0.766-1.915 1.877v2.464h3.83l-0.498 3.83h-3.332v9.932h6.511c0.184 0 0.367-0.036 0.537-0.107s0.325-0.174 0.456-0.304c0.13-0.13 0.234-0.285 0.304-0.456s0.107-0.353 0.107-0.537v-22.723c0-0.184-0.036-0.367-0.107-0.537s-0.174-0.325-0.304-0.456c-0.13-0.13-0.285-0.234-0.456-0.304s-0.353-0.107-0.537-0.107z"></path>
</symbol>
<symbol id="icon-gift-card" viewBox="0 0 50 32">
<path fill="#fff" style="fill: var(--color1, #fff)" d="M2.712-0.478c-0.301 0.086-0.7 0.24-0.894 0.343-0.544 0.3-1.293 1.079-1.536 1.619l-0.224 0.488-0.029 9.524-0.019 9.533h2.596l2.606-0.009-0.379-0.171c-0.972-0.454-1.808-1.55-2.022-2.638-0.554-2.852 3.004-5.13 5.999-3.828 0.69 0.3 1.643 1.028 1.75 1.345 0.039 0.086 0.107 0.163 0.156 0.163s0.088-3.212 0.088-8.265v-8.265l-3.763 0.009c-3.364 0-3.831 0.017-4.326 0.154z"></path>
<path fill="#fff" style="fill: var(--color1, #fff)" d="M12.357 7.419v8.068l0.467-0.385c0.992-0.814 2.003-1.148 3.306-1.071 2.324 0.128 4.025 1.833 3.879 3.888-0.078 1.165-0.719 2.141-1.867 2.818l-0.486 0.291h32.132v-9.319c0-10.141 0.019-9.85-0.544-10.689-0.36-0.54-1.215-1.19-1.867-1.422l-0.554-0.197-34.465-0.043v8.059z"></path>
<path fill="#fff" style="fill: var(--color1, #fff)" d="M5.881 15.624c-0.496 0.197-1.011 0.642-1.264 1.088-0.136 0.24-0.185 0.514-0.185 0.976 0 0.548 0.039 0.702 0.263 1.045 0.36 0.522 0.885 0.899 1.487 1.053 0.7 0.171 4.035 0.711 4.035 0.651 0-0.034-0.175-0.839-0.379-1.79-0.418-1.893-0.603-2.287-1.215-2.707-0.739-0.488-1.954-0.634-2.742-0.317z"></path>
<path fill="#fff" style="fill: var(--color1, #fff)" d="M14.739 15.667c-0.525 0.214-1.099 0.711-1.293 1.122-0.068 0.146-0.292 1.011-0.496 1.927-0.331 1.525-0.35 1.67-0.194 1.696 0.253 0.043 3.685-0.548 4.151-0.711 0.544-0.197 1.215-0.865 1.381-1.37 0.593-1.867-1.556-3.486-3.549-2.664z"></path>
<path fill="#fff" style="fill: var(--color1, #fff)" d="M0.029 25.97l0.029 3.494 0.311 0.582c0.379 0.702 1.069 1.319 1.847 1.662l0.564 0.24 8.021 0.051v-4.377c0-2.398-0.029-4.368-0.068-4.368s-0.972 0.788-2.071 1.756c-2.178 1.91-2.285 1.97-2.858 1.576-0.194-0.137-0.253-0.248-0.253-0.531 0-0.343 0.049-0.394 1.818-1.961l1.818-1.61h-9.188l0.029 3.486z"></path>
<path fill="#fff" style="fill: var(--color1, #fff)" d="M16.469 24.694c2.382 2.099 2.499 2.227 2.499 2.527 0 0.42-0.35 0.745-0.797 0.745-0.282 0-0.583-0.24-2.995-2.355-1.468-1.293-2.713-2.355-2.751-2.355s-0.068 1.97-0.068 4.368v4.368l34.66-0.043 0.564-0.24c0.671-0.291 1.429-0.916 1.721-1.439 0.457-0.779 0.486-1.036 0.486-4.514v-3.272h-35.817l2.499 2.21z"></path>
</symbol>
<symbol id="icon-favorite" viewBox="0 0 33 32">
<path fill="#fff" style="fill: var(--color1, #fff)" d="M22.164 4c-2.32 0-4.547 1.080-6 2.78-1.453-1.7-3.68-2.78-6-2.78-4.113 0-7.333 3.22-7.333 7.333 0 5.033 4.533 9.147 11.4 15.38l1.933 1.753 1.933-1.753c6.867-6.233 11.4-10.347 11.4-15.38 0-4.113-3.22-7.333-7.333-7.333zM16.304 24.74l-0.14 0.127-0.14-0.127c-6.34-5.753-10.527-9.553-10.527-13.407 0-2.66 2.007-4.667 4.667-4.667 2.053 0 4.053 1.327 4.753 3.147h2.487c0.707-1.82 2.707-3.147 4.76-3.147 2.66 0 4.667 2.007 4.667 4.667 0 3.853-4.187 7.653-10.527 13.407z"></path>
</symbol>
<symbol id="icon-mail" viewBox="0 0 33 32">
<path fill="#fff" style="fill: var(--color1, #fff)" d="M27.2 5.333h-21.333c-1.473 0-2.653 1.193-2.653 2.667l-0.013 16c0 1.473 1.193 2.667 2.667 2.667h21.333c1.473 0 2.667-1.193 2.667-2.667v-16c0-1.473-1.193-2.667-2.667-2.667zM27.2 10.667l-10.667 6.667-10.667-6.667v-2.667l10.667 6.667 10.667-6.667v2.667z"></path>
</symbol>
<symbol id="icon-phone" viewBox="0 0 33 32">
<path fill="#fff" style="fill: var(--color1, #fff)" d="M9.367 14.393c1.92 3.773 5.007 6.86 8.787 8.78l2.933-2.94c0.367-0.367 0.893-0.473 1.353-0.327 1.493 0.493 3.1 0.76 4.76 0.76 0.74 0 1.333 0.593 1.333 1.333v4.667c0 0.74-0.593 1.333-1.333 1.333-12.52 0-22.667-10.147-22.667-22.667 0-0.74 0.6-1.333 1.333-1.333h4.667c0.74 0 1.333 0.593 1.333 1.333 0 1.66 0.267 3.267 0.76 4.76 0.147 0.46 0.040 0.987-0.327 1.353l-2.933 2.947z"></path>
</symbol>
<symbol id="icon-time" viewBox="0 0 33 32">
<path fill="#fff" style="fill: var(--color1, #fff)" d="M16.527 2.667c-7.367 0-13.327 5.967-13.327 13.333s5.96 13.333 13.327 13.333c7.367 0 13.34-5.967 13.34-13.333s-5.973-13.333-13.34-13.333zM16.533 26.667c-5.893 0-10.667-4.773-10.667-10.667s4.773-10.667 10.667-10.667c5.893 0 10.667 4.773 10.667 10.667s-4.773 10.667-10.667 10.667z"></path>
<path fill="#fff" style="fill: var(--color1, #fff)" d="M17.2 9.333h-2v8l6.993 4.2 1.007-1.64-6-3.56v-7z"></path>
</symbol>
<symbol id="icon-shopping_cart" viewBox="0 0 33 32">
<path fill="#fff" style="fill: var(--color1, #fff)" d="M9.497 24c-1.473 0-2.653 1.193-2.653 2.667s1.18 2.667 2.653 2.667c1.473 0 2.667-1.193 2.667-2.667s-1.193-2.667-2.667-2.667zM1.497 2.667v2.667h2.667l4.793 10.113-1.8 3.267c-0.207 0.387-0.327 0.82-0.327 1.287 0 1.473 1.193 2.667 2.667 2.667h16v-2.667h-15.433c-0.187 0-0.333-0.147-0.333-0.333 0-0.060 0.013-0.113 0.040-0.16l1.193-2.173h9.933c1 0 1.873-0.553 2.333-1.373l4.767-8.653c0.107-0.187 0.167-0.407 0.167-0.64 0-0.74-0.6-1.333-1.333-1.333h-19.713l-1.267-2.667h-4.353zM22.831 24c-1.473 0-2.653 1.193-2.653 2.667s1.18 2.667 2.653 2.667c1.473 0 2.667-1.193 2.667-2.667s-1.193-2.667-2.667-2.667z"></path>
</symbol>
<symbol id="icon-get-cash" viewBox="0 0 32 32">
<path fill="#fff" style="fill: var(--color1, #fff)" d="M20.267 3.982c-1.778 0.924-3.2 3.164-3.2 5.084s1.422 4.16 3.2 5.049c1.991 1.031 3.342 1.031 5.333 0 1.778-0.889 3.2-3.129 3.2-5.049 0-0.604-0.356-1.813-0.782-2.667-0.924-1.778-3.165-3.2-5.085-3.2-0.604 0-1.813 0.356-2.667 0.782zM23.467 5.831c0 0.284 0.32 0.604 0.675 0.747 0.391 0.107 0.782 0.462 0.889 0.747 0.178 0.462-0.036 0.498-1.387 0.284-2.062-0.284-2.133 0.32-0.071 0.996 1.209 0.391 1.529 0.64 1.6 1.422 0.107 0.782-0.071 1.067-0.782 1.422-0.498 0.213-0.924 0.604-0.924 0.889 0 0.249-0.249 0.462-0.533 0.462s-0.533-0.213-0.533-0.462-0.356-0.604-0.782-0.782c-0.427-0.213-0.853-0.569-0.924-0.818-0.107-0.391 0.213-0.427 1.529-0.213 1.351 0.178 1.671 0.142 1.529-0.249-0.071-0.249-0.64-0.604-1.244-0.747s-1.28-0.498-1.529-0.782c-0.533-0.711-0.142-1.884 0.747-2.169 0.356-0.142 0.676-0.462 0.676-0.747s0.249-0.498 0.533-0.498c0.285 0 0.533 0.213 0.533 0.498z"></path>
<path fill="#fff" style="fill: var(--color1, #fff)" d="M4.977 17.067l-2.667 0.996-0.107 4.302-0.107 4.338 1.351-0.605c4.267-1.884 3.591-1.92 9.636 0.533 3.2 1.316 5.689 2.133 6.044 1.991 0.32-0.107 2.809-1.422 5.511-2.88 5.049-2.773 5.938-3.662 4.871-4.942-0.675-0.782-1.28-0.676-5.404 1.067-4.089 1.707-5.369 2.027-4.409 1.031 0.604-0.604 0.675-0.889 0.355-1.671-0.249-0.675-10.489-5.227-11.591-5.191-0.462 0-2.027 0.462-3.484 1.031z"></path>
</symbol>
<symbol id="icon-icons8-get-cash-90-1" viewBox="0 0 32 32">
<path fill="#fff" style="fill: var(--color1, #fff)" d="M20.267 3.982c-1.778 0.924-3.2 3.164-3.2 5.084s1.422 4.16 3.2 5.049c1.991 1.031 3.342 1.031 5.333 0 1.778-0.889 3.2-3.129 3.2-5.049 0-0.604-0.356-1.813-0.782-2.667-0.924-1.778-3.164-3.2-5.084-3.2-0.605 0-1.813 0.356-2.667 0.782zM23.467 5.831c0 0.284 0.32 0.604 0.676 0.747 0.391 0.107 0.782 0.462 0.889 0.747 0.178 0.462-0.036 0.498-1.387 0.284-2.062-0.284-2.133 0.32-0.071 0.996 1.209 0.391 1.529 0.64 1.6 1.422 0.107 0.782-0.071 1.067-0.782 1.422-0.498 0.213-0.924 0.604-0.924 0.889 0 0.249-0.249 0.462-0.533 0.462s-0.533-0.213-0.533-0.462-0.356-0.604-0.782-0.782c-0.427-0.213-0.853-0.569-0.924-0.818-0.107-0.391 0.213-0.427 1.529-0.213 1.351 0.178 1.671 0.142 1.529-0.249-0.071-0.249-0.64-0.604-1.244-0.747s-1.28-0.498-1.529-0.782c-0.533-0.711-0.142-1.884 0.747-2.169 0.356-0.142 0.676-0.462 0.676-0.747s0.249-0.498 0.533-0.498c0.284 0 0.533 0.213 0.533 0.498z"></path>
<path fill="#fff" style="fill: var(--color1, #fff)" d="M4.978 17.067l-2.667 0.996-0.107 4.302-0.107 4.338 1.351-0.605c4.267-1.884 3.591-1.92 9.636 0.533 3.2 1.316 5.689 2.133 6.044 1.991 0.32-0.107 2.809-1.422 5.511-2.88 5.049-2.773 5.938-3.662 4.871-4.942-0.675-0.782-1.28-0.676-5.404 1.067-4.089 1.707-5.369 2.027-4.409 1.031 0.605-0.604 0.676-0.889 0.356-1.671-0.249-0.675-10.489-5.227-11.591-5.191-0.462 0-2.027 0.462-3.484 1.031z"></path>
</symbol>
<symbol id="icon-instagram" viewBox="0 0 32 32">
<path fill="#00d700" style="fill: var(--color2, #00d700); stroke: var(--color2, #00d700)" stroke="#00d700" stroke-linejoin="round" stroke-linecap="round" stroke-miterlimit="4" stroke-width="1.5612" d="M22.584 2.958h-13.041c-3.601 0-6.521 2.919-6.521 6.521v13.041c0 3.601 2.919 6.521 6.521 6.521h13.041c3.601 0 6.521-2.919 6.521-6.521v-13.041c0-3.601-2.919-6.521-6.521-6.521z"></path>
<path fill="#17171b" style="fill: var(--color3, #17171b); stroke: var(--color3, #17171b)" stroke="#17171b" stroke-linejoin="round" stroke-linecap="round" stroke-miterlimit="4" stroke-width="0.9697" d="M21.28 15.179c0.161 1.085-0.024 2.194-0.53 3.168s-1.305 1.764-2.285 2.257-2.091 0.665-3.174 0.491c-1.083-0.174-2.084-0.686-2.86-1.462s-1.287-1.777-1.462-2.86c-0.174-1.083-0.003-2.194 0.491-3.174s1.283-1.78 2.257-2.285c0.974-0.505 2.082-0.691 3.168-0.53 1.107 0.164 2.132 0.68 2.923 1.471s1.307 1.816 1.471 2.923z"></path>
<path fill="#17171b" style="fill: var(--color3, #17171b)" d="M23.475 9.411c0 0.455-0.369 0.824-0.824 0.824s-0.824-0.369-0.824-0.824c0-0.455 0.369-0.824 0.824-0.824s0.824 0.369 0.824 0.824z"></path>
</symbol>
<symbol id="icon-istockphoto" viewBox="0 0 44 32">
<path fill="#fff" style="fill: var(--color1, #fff)" d="M2.342-0.121c-1.264 0.249-2.378 1.493-2.541 2.799-0.038 0.348-0.063 5.088-0.038 10.525 0.038 7.552 0.088 10.003 0.2 10.351 0.35 1.020 1.577 2.165 2.628 2.463 0.3 0.075 4.093 0.124 10.627 0.124 9.062 0 10.176-0.025 10.351-0.199 0.238-0.236 0.263-0.672 0.050-0.958-0.15-0.187-0.989-0.212-10.364-0.236l-10.201-0.037-0.526-0.299c-0.3-0.174-0.688-0.523-0.876-0.796l-0.35-0.498-0.038-6.27-0.038-6.258h32.931v0.995c0 0.846 0.038 1.033 0.263 1.257 0.263 0.261 0.764 0.249 1.051-0.025 0.075-0.075 0.125-1.941 0.125-5.063 0-4.802-0.012-4.951-0.275-5.524-0.375-0.821-1.202-1.655-2.028-2.053l-0.701-0.348-14.895-0.012c-8.186-0.012-15.108 0.012-15.358 0.062zM33.045 1.696c0.288 0.199 0.663 0.622 0.826 0.921 0.25 0.473 0.288 0.734 0.288 1.841v1.281h-32.919v-1.592c0-1.779 0.138-2.165 0.901-2.637 0.413-0.249 0.613-0.249 15.395-0.224l14.97 0.037 0.538 0.373z"></path>
<path fill="#fff" style="fill: var(--color1, #fff)" d="M32.294 14.336c-0.939 0.162-2.291 0.647-3.117 1.132-1.026 0.597-2.641 2.227-3.217 3.247-1.477 2.65-1.565 5.661-0.25 8.36 0.901 1.866 2.228 3.185 4.131 4.118 4.919 2.414 10.802-0.062 12.517-5.275 0.2-0.597 0.2-0.672 0.013-0.958-0.2-0.311-0.613-0.398-0.901-0.212-0.075 0.050-0.313 0.523-0.538 1.058-0.976 2.426-2.804 4.081-5.207 4.69-3.53 0.896-7.172-0.734-8.749-3.919-2.24-4.504 0.351-9.791 5.32-10.836 3.242-0.684 6.784 1.033 8.299 4.018 0.175 0.361 0.325 0.684 0.325 0.709 0 0.037-0.175 0.037-0.375-0.012-0.463-0.087-0.876 0.224-0.876 0.659 0 0.299 0.238 0.485 1.577 1.232 0.901 0.498 1.127 0.411 1.84-0.746 0.601-0.958 0.713-1.381 0.438-1.655-0.213-0.212-0.726-0.187-0.989 0.050-0.2 0.174-0.238 0.137-0.526-0.498-1.702-3.695-5.695-5.822-9.713-5.163z"></path>
<path fill="#fff" style="fill: var(--color1, #fff)" d="M5.146 16.724c-0.263 0.274-0.275 0.411-0.275 2.090 0 2.501-0.2 2.351 3.142 2.351 3.317 0 3.117 0.149 3.117-2.376 0-2.501 0.2-2.351-3.142-2.351-2.528 0-2.578 0-2.841 0.286z"></path>
<path fill="#fff" style="fill: var(--color1, #fff)" d="M29.29 18.267c-0.413 0.522-0.15 1.12 0.526 1.182l0.4 0.037 0.188 1.244c0.225 1.381 0.3 1.58 0.864 2.103l0.388 0.373-0.513 0.523c-0.488 0.498-0.526 0.572-0.713 1.841-0.188 1.281-0.2 1.319-0.513 1.319-0.488 0.012-0.801 0.311-0.801 0.759 0 0.734 0.025 0.734 4.756 0.734 4.13 0 4.306-0.012 4.544-0.249 0.138-0.137 0.25-0.361 0.25-0.498 0-0.336-0.438-0.747-0.801-0.747s-0.376-0.050-0.576-1.543c-0.15-1.033-0.188-1.145-0.663-1.655l-0.501-0.547 0.463-0.46c0.501-0.523 0.626-0.858 0.764-2.028 0.125-1.157 0.15-1.232 0.551-1.232 0.688 0 1.001-0.759 0.513-1.244-0.238-0.236-0.413-0.249-4.556-0.249h-4.318l-0.25 0.336zM36.024 19.884c-0.013 1.182-0.163 1.568-0.901 2.289-0.914 0.896-0.914 1.082-0.012 1.991 0.739 0.734 0.901 1.145 0.914 2.314l0.013 0.411h-2.19c-2.491 0-2.278 0.124-2.065-1.244 0.125-0.734 0.188-0.858 0.738-1.393 0.563-0.523 0.889-0.946 0.889-1.157 0-0.050-0.338-0.423-0.739-0.846-0.701-0.734-0.738-0.809-0.876-1.667-0.075-0.485-0.138-0.958-0.138-1.020 0-0.087 0.738-0.137 2.19-0.137h2.19l-0.013 0.46z"></path>
<path fill="#fff" style="fill: var(--color1, #fff)" d="M32.407 20.979c-0.125 0.149-0.125 0.224 0.013 0.398 0.375 0.51 1.302 1.406 1.439 1.406 0.225 0 1.552-1.393 1.552-1.63 0-0.299-0.263-0.361-1.627-0.361-0.926 0-1.252 0.050-1.377 0.187z"></path>
<path fill="#fff" style="fill: var(--color1, #fff)" d="M32.932 25.532c-0.926 1.020-0.826 1.132 1.026 1.082 1.164-0.037 1.389-0.075 1.427-0.236 0.050-0.299-1.189-1.605-1.527-1.605-0.163 0-0.513 0.286-0.926 0.759z"></path>
</symbol>
<symbol id="icon-search" viewBox="0 0 32 32">
<path fill="none" stroke="#fff" style="stroke: var(--color1, #fff)" stroke-linejoin="round" stroke-linecap="round" stroke-miterlimit="4" stroke-width="2.7826" d="M14.667 25.333c5.891 0 10.667-4.776 10.667-10.667s-4.776-10.667-10.667-10.667c-5.891 0-10.667 4.776-10.667 10.667s4.776 10.667 10.667 10.667z"></path>
<path fill="none" stroke="#fff" style="stroke: var(--color1, #fff)" stroke-linejoin="round" stroke-linecap="round" stroke-miterlimit="4" stroke-width="2.7826" d="M28.001 28l-5.8-5.8"></path>
</symbol>
<symbol id="icon-star" viewBox="0 0 32 32">
<path d="M15.551 2.369l4.805 9.346 10.746 1.508-7.776 7.271 1.835 10.272-9.61-4.852-9.61 4.852 1.835-10.272-7.775-7.271 10.746-1.508 4.805-9.346z"></path>
</symbol>
<symbol id="icon-truck" viewBox="0 0 32 32">
<path fill="none" stroke="#fff" style="stroke: var(--color1, #fff)" stroke-linejoin="round" stroke-linecap="round" stroke-miterlimit="4" stroke-width="2.0645" d="M13.333 22.667h5.333v-16h-16v16h4"></path>
<path fill="none" stroke="#fff" style="stroke: var(--color1, #fff)" stroke-linejoin="round" stroke-linecap="round" stroke-miterlimit="4" stroke-width="2.0645" d="M26.666 22.667h2.667v-4.453c0.001-0.701-0.137-1.394-0.405-2.042s-0.66-1.236-1.155-1.732l-2.44-2.44h-6.667"></path>
<path fill="none" stroke="#fff" style="stroke: var(--color1, #fff)" stroke-linejoin="round" stroke-linecap="round" stroke-miterlimit="4" stroke-width="2.0645" d="M18.666 22.667h1.333"></path>
<path fill="none" stroke="#fff" style="stroke: var(--color1, #fff)" stroke-linejoin="round" stroke-linecap="round" stroke-miterlimit="4" stroke-width="2.0645" d="M10 26.667c1.841 0 3.333-1.492 3.333-3.333s-1.492-3.333-3.333-3.333-3.333 1.492-3.333 3.333c0 1.841 1.492 3.333 3.333 3.333z"></path>
<path fill="none" stroke="#fff" style="stroke: var(--color1, #fff)" stroke-linejoin="round" stroke-linecap="round" stroke-miterlimit="4" stroke-width="2.0645" d="M23.333 26.667c1.841 0 3.333-1.492 3.333-3.333s-1.492-3.333-3.333-3.333c-1.841 0-3.333 1.492-3.333 3.333s1.492 3.333 3.333 3.333z"></path>
</symbol>
<symbol id="icon-twitter" viewBox="0 0 33 32">
<path fill="#00d700" style="fill: var(--color2, #00d700); stroke: var(--color2, #00d700)" stroke="#00d700" stroke-linejoin="round" stroke-linecap="round" stroke-miterlimit="4" stroke-width="1.3617" d="M29.941 5.333c0 0-0.933 2.8-2.667 4.533 2.133 13.333-12.533 23.067-24 15.467 2.933 0.133 5.867-0.8 8-2.667-6.667-2-10-9.867-6.667-16 2.933 3.467 7.467 5.467 12 5.333-1.2-5.6 5.333-8.8 9.333-5.067 1.467 0 4-1.6 4-1.6z"></path>
</symbol>
<symbol id="icon-user" viewBox="0 0 33 32">
<path fill="none" stroke="#fff" style="stroke: var(--color1, #fff)" stroke-linejoin="round" stroke-linecap="round" stroke-miterlimit="4" stroke-width="2.1333" d="M26.831 28v-2.667c0-1.415-0.562-2.771-1.562-3.771s-2.357-1.562-3.771-1.562h-10.667c-1.414 0-2.771 0.562-3.771 1.562s-1.562 2.357-1.562 3.771v2.667M21.497 9.333c0 2.946-2.388 5.333-5.333 5.333s-5.333-2.388-5.333-5.333c0-2.946 2.388-5.333 5.333-5.333s5.333 2.388 5.333 5.333z"></path>
</symbol>
<symbol id="icon-triangle-right" viewBox="0 0 32 32">
<path d="M24 16l-14.4 8v-16l14.4 8z"></path>
</symbol>
</defs>
</svg>
